<?xml version="1.0" encoding="UTF-8" standalone="no"?>
<!-- Created with Inkscape (http://www.inkscape.org/) -->

<svg
   version="1.1"
   id="svg2"
   width="1796.9333"
   height="600"
   viewBox="0 0 1796.9333 600"
   sodipodi:docname="32995600_2208_w030_n003_427b_p1_427.eps"
   xmlns:inkscape="http://www.inkscape.org/namespaces/inkscape"
   xmlns:sodipodi="http://sodipodi.sourceforge.net/DTD/sodipodi-0.dtd"
   xmlns="http://www.w3.org/2000/svg"
   xmlns:svg="http://www.w3.org/2000/svg">
  <defs
     id="defs6" />
  <sodipodi:namedview
     id="namedview4"
     pagecolor="#ffffff"
     bordercolor="#000000"
     borderopacity="0.25"
     inkscape:showpageshadow="2"
     inkscape:pageopacity="0.0"
     inkscape:pagecheckerboard="0"
     inkscape:deskcolor="#d1d1d1" />
  <g
     id="g8"
     inkscape:groupmode="layer"
     inkscape:label="ink_ext_XXXXXX"
     transform="matrix(1.3333333,0,0,-1.3333333,0,600)">
    <g
       id="g10"
       transform="scale(0.1)">
      <path
         d="M 13477,0 H 0 V 4500 H 13477 V 0"
         style="fill:#ffffff;fill-opacity:1;fill-rule:nonzero;stroke:none"
         id="path12" />
      <path
         d="m 7306.17,3423.51 c 0,0 -48.76,-48.04 -61.62,-47.43 69.45,83.96 124.77,146.87 124.77,146.87 -0.6,-23.91 -4.24,-49.93 -9.87,-76.75 -11.14,-6.57 -34.24,-19.18 -53.28,-22.69 z m -442.92,-647.22 c 0,0 89.38,11.58 116.7,5.57 -78.78,-26.67 -169.39,-54.49 -169.39,-54.49 12.44,23.26 29.29,50.14 47.42,77.22 3.83,-6.15 10.28,-18.81 5.27,-28.3 z m 3.25,-1045.07 c -4,-10.14 -7.91,-19.84 -11.72,-29.03 z m -168.85,-256.95 c 20.81,40.26 156.05,226.02 156.73,226.95 -52.37,-126.15 -88.36,-166.48 -156.73,-226.95 z m 643.55,908.01 c -11,-57.16 -20.83,-91.47 -20.83,-91.47 0,0 -18.52,-19.01 -81.79,-50.16 0.34,1.15 29.46,98.03 102.62,141.63 z m 29.85,310.25 c 0.05,-16.25 -0.19,-32.24 -0.66,-47.98 z m -21.95,106.76 c -33.37,11.33 -31.66,22.18 -31.66,22.18 -103.27,-8.18 -154.36,3.91 -175.76,11.91 130.69,44.88 214.49,50.99 214.49,50.99 10.44,-65.22 14.66,-130.06 14.88,-191.64 -27.08,52.97 -21.95,106.56 -21.95,106.56 z m -17.41,501.08 c 18.78,101.43 172.39,428.03 172.39,428.03 -173.76,-155.58 -436.38,-520.09 -436.38,-520.09 0,0 196.54,224.53 178.3,189.94 -18.24,-34.6 -341.57,-455.01 -345.53,-424.23 -3.98,30.77 100.46,133.72 100.46,133.72 -95.16,-86.11 -163.65,-178.7 -212.54,-262.22 2.01,25.43 5.11,101.12 -29.61,97.29 0,0 37.71,81.91 202.95,260.45 0,0 -165.16,-168.53 -221.69,-266.78 0,0 89.6,32.71 17.24,-147.63 -62.81,-122.93 -81.11,-214.65 -81.11,-214.65 150.49,119.05 292.88,192.6 408.16,238.03 2.88,0.18 220.32,14.07 243.79,-13.31 19.91,-23.24 36.28,-118.34 40.92,-147.6 0.83,-5.17 1.27,-8.2 1.31,-8.49 -2.76,-90.51 -13.35,-171.5 -24.1,-232.98 -26.01,-32.27 -96.85,-120 -103.72,-126.41 0,0 6.9,-38.93 -35.37,-57.52 -1.41,-0.63 -2.88,-1.27 -4.32,-1.91 -0.57,-0.25 -1.07,-0.48 -1.59,-0.71 -8.96,-3.95 -18.32,-7.99 -28.56,-12.21 -106.24,-43.75 -105.41,-30.87 -104.29,-28.03 -4.05,-8.31 -87.12,-179.08 -155.99,-340 -0.37,12.34 -0.74,29.16 -0.44,38.69 0.52,16.29 122.23,262.64 122.23,262.64 l -122.76,-232.66 c 0,0 -6.3,-85.73 -16.14,-109.16 l -0.38,-0.96 c -6.88,-16.52 -13.51,-32.77 -19.79,-48.55 -67.36,-134.29 -251.43,-342.22 -251.46,-342.26 -82.52,-64.97 -94.26,-37.05 -94.26,-37.05 0,0 -34.86,-64.02 -61.46,-110.76 -26.59,-46.73 -155.1,-290.631 -155.1,-290.631 l 204.94,282.941 c 0,0 -19.21,20.23 15.95,67.12 13.13,17.5 47.58,44.7 85.61,71.91 56.02,38.64 198.25,35.49 198.25,35.49 l 127.81,113.43 28.17,6.28 -27.11,-0.48 c 2.33,11.92 9.04,42.88 25.37,99.05 0,0 -4.52,-10.86 -26.62,-93.93 0,0 -87.97,-113.37 -168.87,-117.37 -80.88,-3.99 -94.16,0.7 -94.17,0.7 41.36,27.48 74.88,48.23 74.88,48.23 0,0 33.09,67.42 73.15,128.1 40.05,60.69 293.12,383.9 293.12,383.9 -51.49,4.23 65.21,91.97 123.12,111.84 57.92,19.87 179.16,44.29 179.16,44.29 -36.98,55.9 -22.98,136.69 -22.98,136.69 -59.1,144.62 -12.96,345.93 29.5,464.93 42.46,118.99 36.22,278.25 36.22,278.25 -70.65,-74.93 -260.24,-110.84 -260.24,-110.84 0,0 -79.18,-76.8 -119.91,-99.79 -11.35,-6.41 -37.95,-16.69 -70.41,-28.17 -0.05,-0.01 -125.01,-16.84 -144.38,-11.39 -19.29,5.41 5.18,51.08 5.42,51.51 46.52,66.65 93.83,126.53 93.83,126.53 -21.21,36.1 98.86,199.98 212.33,341.43 -0.02,-0.03 144.28,161.75 170.31,124.84 -32.57,-135.94 -110.37,-284.96 -110.37,-284.96 69.87,119.48 126.86,94.78 126.86,94.78 12.04,12.2 29.29,32.69 48.95,57.33 0,-0.01 65.93,60.37 113.15,79.19 l 190.72,262.99 -204.5,-263.23 c 0,0 -49.03,-39 -69.58,-40.89 69.11,89.73 149.91,202.96 149.91,202.96 0,0 -73.09,-82.26 -81.01,-70.83 -7.91,11.43 217.81,330.3 217.81,330.3 -293.6,-380.9 -405.55,-495.12 -405.55,-495.12"
         style="fill:#000000;fill-opacity:1;fill-rule:nonzero;stroke:none"
         id="path14" />
      <path
         d="m 3574.19,3241.05 c 74.96,-85.18 92.9,-130.28 92.9,-130.29 -0.82,-19.8 -1.19,-31.72 -1.19,-31.72 -53.45,76.69 -74.02,120.45 -91.71,162.01 z m -135.96,-173 c 0,0 -10.07,-147.06 -20.73,-203.96 -10,157.37 6.74,241.1 6.74,241.1 4.3,-12.48 9,-24.88 14.01,-37.16 z m 540.47,882.34 c 0,0 -50.59,-22.21 -71.9,-28.24 52.73,66.06 97.52,105.81 97.52,105.81 8.84,-35.69 7.96,-85.83 5.67,-121.62 z m 240.86,-110.81 c -0.03,-0.2 -16.02,-100.21 -23.21,-106.44 -21.8,24.77 -1.48,69.25 23.21,106.44 z m 15.98,22.49 -15.92,-22.4 c 5.24,7.89 10.66,15.44 15.92,22.4 z m -422.47,-212.78 c 0,0 -3.12,31.04 -0.84,47.67 2.28,16.62 57.57,87.92 57.57,87.92 l -72.78,-88.19 c 0,0 22.11,-26.73 7.08,-48.85 -11.95,-17.58 -50.03,-69.23 -65.17,-89.7 4.74,27.71 10.19,54.16 16.53,78.57 24.95,96.11 75.04,182.4 123.78,249.34 37.95,48.79 101.5,57.95 101.5,57.95 0,0 28.91,-34.41 27.16,-63.89 -1.06,-11.12 -1.94,-17.92 -1.94,-17.92 25.55,-63.81 5.53,-313.51 -4.99,-372.81 -2.17,-12.21 -5.18,-29.37 -8.58,-48.87 -4.38,24.84 -4.84,80.76 -4.84,80.76 5.16,28.6 8.24,88.04 10.07,144.3 -6.28,-75.43 -17.28,-145.71 -17.28,-145.71 15.67,-60.13 0.47,-145.8 0.47,-145.8 -10.57,-60.84 -20.69,-119.32 -20.69,-119.32 0,0 18.26,58.16 13.59,31.51 -4.68,-26.64 -20.72,-137.03 -20.72,-137.03 0,0 13.65,27.23 82.34,213.52 68.69,186.29 137.51,255.62 143.7,305.86 6.18,50.23 31.82,53.9 31.82,53.9 -1.45,0.68 -2.76,1.43 -4.06,2.18 -7.93,6.27 11.77,110.83 28.81,137.46 4.53,6 8.94,11.58 12.98,16.54 34.6,42.38 43.29,59.88 43.29,59.88 -20.07,-27.99 -12.98,11.96 10.91,36.83 23.9,24.86 12.32,-5.78 12.32,-5.78 41.89,38.27 61.75,93.62 61.75,93.62 -38.25,-65.79 -96.14,-87.38 -96.14,-87.38 0,0 5.84,-39.31 -32.72,-87.97 -38.56,-48.67 -109.39,-113.32 -109.39,-113.32 0,0 -0.59,-161.1 -31.96,-228.48 -31.37,-67.39 -79.93,-131.65 -79.93,-131.65 65.35,181.09 72.6,450.26 72.6,450.26 -18.84,-0.33 -37.99,16.47 -16.45,57.98 21.55,41.51 26.62,142.7 26.62,142.7 -85.96,15.62 31.54,154.79 31.54,154.79 0,0 -55.85,-50.73 -105.36,-97.34 -7.77,-7.29 -9.42,-1.51 -12.5,2.72 -3.07,4.23 24.16,39.41 24.16,39.41 l -84.84,-96.6 54.33,53.22 c 0,0 20.52,2.83 -3.64,-20.05 -18.74,-17.93 -34.87,-33.77 -44.08,-43.77 -35.31,-38.32 -32.24,-17.7 -32.24,-17.7 -38.8,-34.96 -72.04,-93.81 -72.04,-93.81 29.7,-32.04 -32.51,-99.97 -75.51,-188.12 -43,-88.16 -81.58,-232.79 -81.58,-232.79 13.29,24.23 13.86,-8.32 1.42,-80.52 -12.43,-72.19 -13.64,-3.66 -13.64,-3.66 -15.72,-83.79 -24.11,-233.43 -27.6,-311.52 0,0 -92.93,109.55 -106.08,140.7 -7.97,18.7 -16.72,38.36 -28.91,61.7 -46.11,88.3 -86.71,176.69 -86.71,176.69 -14.04,-56.8 -5.17,-116.62 -5.17,-116.62 0,0 30.74,5.69 30.87,-98.85 0.13,-104.53 44.66,-297.39 44.66,-297.39 -56.09,70.99 -79.93,241.93 -79.93,241.93 -22.95,-74.09 -24.55,-147.81 -24.55,-147.81 l -18.72,-7.18 c -0.5,-28.54 -0.12,-57.03 0.89,-85.31 -7.13,11.45 -11.68,29.21 -11.68,29.21 l 2.43,103.08 -6.05,-104.64 c 0,0 15.55,-35.77 16.92,-63.95 16.56,-293.41 102.35,-552.58 102.35,-552.58 -42.66,154.01 -64.72,284.5 -75.31,389.43 -5.42,68.2 15.72,222.68 20.66,257.34 73.7,-171.92 206.91,-316.35 206.91,-316.35 -203.27,302.31 -164.68,592.17 -164.68,592.17 94.95,-63.87 109.48,-158.73 121.74,-198.35 12.27,-39.63 120.12,-179.11 120.12,-179.11 -14.06,59.77 -24.25,305.84 -0.95,516.56 15.03,103.63 86.36,178.99 86.36,178.99"
         style="fill:#000000;fill-opacity:1;fill-rule:nonzero;stroke:none"
         id="path16" />
      <path
         d="m 9120.36,2136.53 c 0,0 -178.12,82.23 -128.44,97.68 88.17,18.01 166.47,29.38 166.47,29.38 0,0 119.64,-176.12 130.58,-213.62 3.73,-12.79 0.73,-39.03 -5.32,-68.34 -36.69,34.36 -163.29,154.9 -163.29,154.9 z m -323.12,102.79 c 0,0 44.59,12.79 30.21,-19.65 -94.05,-20.11 -183.71,-21.71 -183.71,-21.71 32.67,74.49 67.42,146.25 103.07,214.75 26.23,34.04 50.43,-173.39 50.43,-173.39 z m -267.86,-899.47 c 0,0 18.3,-8.15 26.16,-18.23 -66.59,-18.17 -125.68,-16.83 -125.68,-16.83 22.52,43.7 48.44,85.52 75.83,124.9 6.46,-4.36 18.77,-21.6 23.69,-89.84 z m -16.98,-99.59 c 0,0 -108.2,15.34 -97.32,28.28 0.29,0.35 0.48,0.63 0.74,0.95 147.91,64.82 185.56,26.33 185.56,26.33 0,0 -11.8,-55.41 -29.24,-126.76 -21.16,-2.36 -59.74,71.2 -59.74,71.2 z m 457.44,540.18 c 0,0 -3.76,-78.05 -59.83,-105.6 -56.06,-27.55 -83.51,22.52 -83.51,22.52 l 9.88,-25.53 c 0,0 -109.09,-27.62 -134.74,-13.14 56.79,55.51 97.43,87.88 97.43,87.88 0,0 18,48.3 48.54,65.98 30.53,17.67 149.93,11.21 149.93,11.21 0,0 -1.68,35.96 93.54,-18.91 95.22,-54.88 204.99,-157.47 204.99,-157.47 41.47,77.84 32.77,279.9 32.77,279.9 l -8.74,-87.55 c -28.11,136.6 1.35,311.92 1.35,311.92 16.99,-88.82 10.27,-193.47 10.27,-193.47 12.1,91.04 3.57,380.5 3.57,380.5 0,0 -164.34,-9.75 -300.45,-65.28 -136.12,-55.52 -104.14,-22.4 -104.14,-22.4 -16.51,-7.04 -34.06,-13.12 -52.02,-18.42 -116.16,-39.07 -93.93,250.56 -93.87,251.3 222.78,407.09 465.65,681.01 465.65,681.01 l -208.38,-233.31 c 0,0 -63.56,-88.52 -100.47,-133.73 -36.9,-45.2 -58.09,-9.59 -58.09,-9.59 -46.74,-53.35 -96.72,-117.44 -145.81,-184.22 0,0 -19.25,-26.38 -32.4,-35.01 -13.15,-8.63 -31.42,32.6 -31.42,32.6 46.82,154.02 186.66,274.48 186.66,274.48 -133.26,-96.17 -216.4,-264.72 -216.4,-264.72 0,0 77.59,-29.13 17.94,-113.07 -127.89,-183.29 -233.3,-355.57 -233.3,-355.57 l 119.06,147.77 c -111.76,-173.34 -194.19,-357.73 -194.19,-357.73 154.2,99.11 353.44,170.32 353.44,170.32 0,0 -20.74,9.91 60.59,62.76 29.13,18.93 87.57,36.83 150.54,52.01 1.87,0.43 3.9,0.91 6.22,1.5 57.08,14.66 364.45,-207.2 351.6,-270.32 -12.2,-47.45 -28.64,-93.23 -35,-97.01 -11.87,-7.07 -70.14,-6.38 -70.14,-6.38 0,0 62.33,-36.6 7.33,-27.29 -55,9.31 -177.75,70.55 -177.75,70.55 l 110.06,-22.05 c 0,0 -167.29,60.46 -210.6,87.11 -43.31,26.66 -8.85,112.95 -8.85,112.95 l -165.76,-258.26 c 0,0 -31.85,-99.96 -167.32,-289.14 -1.87,-2.62 -3.62,-4.99 -5.44,-7.51 -0.41,-0.08 -28.36,-5.66 -15.05,31.07 13.41,37.01 107.05,181.42 107.05,181.42 l -107.66,-147.09 c 0,0 -35.25,121.67 -41.17,184.35 -5.92,62.69 177.25,263.61 177.25,263.61 -92.37,-77.03 -221.05,-254.08 -221.05,-254.08 82,-25.42 59.57,-267.51 59.57,-267.51 0,0 48,25.36 18.96,-21.62 C 8424.62,1343 8436.43,1418 8436.43,1418 c -92.77,-83.89 -123.27,-200.96 -123.27,-200.96 20.63,11.84 39.78,22.13 57.7,31.19 66.84,32.02 205.22,-44.55 189.44,-126.45 -14.22,-55.48 -30.74,-114.97 -47.22,-163.401 C 8469.1,829.078 8370.81,572.012 8370.81,572.012 l 82.34,92.269 -82.09,-203.66 21.03,70.629 -100.66,-219.41 20.93,173.449 -177.14,-352.707 156.62,252.957 -16.52,-132.25 c 0,0 155.63,309.492 204.1,378.902 48.48,69.399 125.26,185.571 125.26,185.571 L 8414.26,634.461 c 0,0 119.21,236.879 145.83,281.91 26.63,45.02 219.64,372.309 219.64,372.309 l -97.06,-131.95 151.21,268.28 c -142.09,-105.32 -185.68,-63.25 -185.68,-63.25 -21.78,-14.25 -45.56,-24.92 -69.16,-32.94 -75.12,-18.6 -45.49,137.96 -45.11,139.94 46.5,62 95.32,116.51 138.27,160.48 42.95,31.03 225.92,40.24 232.95,30.09 7.03,-10.16 -31.28,-121.36 -31.28,-121.36 0,0 102.46,166.34 95.97,242.47"
         style="fill:#000000;fill-opacity:1;fill-rule:nonzero;stroke:none"
         id="path18" />
      <path
         d="m 738.121,2501.28 c 0,0 49.551,-48.83 45.399,-70.09 -41.875,-29.3 -96.332,-63.33 -135.832,-73.26 0,0 -3.137,89.03 59.367,231.23 0.699,-0.57 19.086,-16.07 31.066,-87.88 z m 917.599,1291.65 c 0,0 -39.84,24.14 -56.84,64.97 0,0 -393.87,-88.55 -367.14,-56.36 58.65,67.63 125.31,137.32 200.83,206.8 0,0 -247.05,-81.48 -508.843,-395.41 0,0 124.483,229.26 269.633,355.2 l -87.93,-66.67 c 0,0 107.49,123.57 195.55,183.38 l -58.72,-71.29 c 0,0 45.06,38.9 99.99,81.22 70.99,57.98 178.22,55.52 201.73,-0.6 3.7,-8.82 5.92,-13.9 7.13,-16.33 19.46,-45.29 37.61,-93.66 41.81,-124.94 0,0 67.4,64.6 79.78,-151.11 4.77,-83.16 23.07,-184.96 1.03,-313.95 -7.09,-24.4 -18.01,305.09 -18.01,305.09 z m -259.76,341.71 c 36.94,26.24 73.4,49.32 100.15,59.9 0,0 10.39,-20.1 24.39,-49.41 1.66,-18.68 -74.49,-0.32 -74.49,-0.32 0,0 -57.55,-25.54 -50.05,-10.17 z M 730.254,2655.86 c 0,0 -142.469,-302.41 -165.297,-465.61 0,0 582.753,188.5 919.183,837.06 0,0 -116.44,-199.12 -194.28,-255.34 -77.83,-56.21 323.95,482.12 254.45,342.09 0,0 55.68,91.89 106.71,250.31 57.79,139.02 130.98,69.84 127.03,2.19 0,0 77.34,162.55 -10.06,585.15 0,0 48.94,-311.46 7.52,-440.71 -41.42,-129.26 -60.02,-22.3 -60.02,-22.3 0,0 -43.65,-118.48 -35.31,-23.16 58.18,228.32 90.82,551.47 -17.8,921.29 0,0 -107.66,-17.32 -310.88,-154.57 -203.22,-137.26 -122.53,-48.44 -122.53,-48.44 0,0 -129,-140.8 -246.212,-336.43 -13.895,-22.85 -45.231,-45.28 -48.649,2.65 -3.414,47.94 124.591,222.82 124.591,222.82 -103.473,-108.5 -162.743,-245.78 -162.743,-245.78 0,0 80.66,23.75 35.504,-70.76 -62.238,-118.28 -114.078,-249.89 -130.383,-379.47 0,0 126.344,269.56 278.892,364.79 0,0 -48.36,-173.08 -110.876,-271.86 0,0 -75.11,-162.41 -105.367,-244.34 0,0 84.703,227.1 309.383,505.97 61.15,72.61 361.27,106.95 429.68,99.2 65.64,-7.43 70.83,-366.07 35.43,-475.68 -43.73,-120.4 -126.02,-260.83 -276.25,-425.98 -57.03,-52.21 -33.09,59.64 -33.09,59.64 -58.39,7.53 -88.09,39.57 -88.09,39.57 0,0 -60.96,-13.7 -90.77,-3.32 -67.04,23.37 -100.24,88.78 -100.32,149.9 -0.08,61.12 81.17,158.48 81.17,158.48 0,0 -90.84,-96.11 -87.38,-137.17 3.46,-41.07 21.77,-126.43 21.77,-126.43 l -55.3,-60.28 c 0,0 55.45,51.71 66.65,48.48 11.2,-3.22 66.65,-38.23 66.65,-38.23 l -112.61,-27.7 c 0,0 100.82,16.16 133.31,20.16 119.08,14.67 215.96,-43.53 118.84,-166.05 -68.3,-68.35 -147.88,-140.64 -240.61,-217.2 0,0 93.32,53.06 -11.05,-53.32 -104.374,-106.38 -262.546,-174.28 -185.074,-97.52 0,0 -10.812,-8.78 -27.878,-21.6 -48.59,-34.74 -117.141,100.41 -83.954,189.59 48.715,94.05 124.727,205.94 243.61,327.88 0,0 -200.996,-166.35 -158.481,-50.78 0,0 -83.398,-42.01 -190.234,-167.35 -31.336,-26.74 -157.789,-86.65 -66.266,39.02 79.965,109.79 179.711,149.5 212.367,160.09 -205.257,-61.02 -292.074,-252.06 -292.074,-252.06 41.082,36.03 100.196,10.23 48.715,-77.93 -3.969,-6.09 -7.945,-12.31 -11.926,-18.63 -58.363,-92.66 -117.621,-209.58 -170.246,-356.33 0,0 50.84,129.42 126.512,211.3 0,0 -206.145,-360.08 -289.637,-678.59 0,0 145.16,514.1 543.68,873.29"
         style="fill:#000000;fill-opacity:1;fill-rule:nonzero;stroke:none"
         id="path20" />
      <path
         d="m 11371.2,3781.41 c 0,0 -31.1,-5.01 -14.4,21.59 40.4,40.11 68.9,72.22 68.9,72.22 -8.1,-61.46 -20,-121.76 -33.8,-179.03 -1.5,-4.44 -7.5,-12.53 -20.7,85.22 z m -16.4,243.34 c -9.1,28.66 73.7,-21.3 59.7,-39.11 -20.9,-25.42 -38.1,-43.12 -38.1,-43.12 -3.2,23.19 -11.8,53.26 -21.5,82.13 0,0.03 -0.1,0.06 -0.1,0.1 z m -639.7,-533.62 c 0,0 3.9,75.11 25,15.05 18.8,-53.4 -3.6,-62.57 -8.8,-63.95 17,3.83 249.3,55.91 240.6,47.38 -240.5,-116.79 -451.3,-109.94 -451.3,-109.94 28.2,144.87 82.3,269.63 145.4,374.13 1.9,2.71 4.8,7.4 9,14.64 0.2,0.23 0.3,0.46 0.5,0.69 31.3,52.7 39.6,-278 39.6,-278 z m 367.5,-40.91 c -9.3,-26.29 -43.2,26.73 -43.2,26.73 -35.2,-12.26 -38.2,5.1 -4.5,32.89 47.2,24.67 80.1,40.6 80.1,40.6 -9,-32.01 -20,-65.62 -32.4,-100.22 z m 426.9,414.86 c -13.2,-53.76 -71.5,-105.73 -71.5,-105.73 -19.8,309.81 90,290.65 90,290.65 11.4,-25.21 -7.9,-149.4 -7.9,-149.4 32,111.96 38.4,266.28 38.4,266.28 -71.2,-118.62 -74.9,-71.38 -74.9,-71.38 -7.5,-21.89 -21.9,-46.02 -37.6,-68.56 -0.3,-0.46 -0.7,-1.04 -1.1,-1.58 -0.7,-1 -1.4,-1.99 -2.1,-2.98 -17.1,-24.74 -89.4,6.51 -107.8,57 -9.7,24.94 -17.2,42.32 -17.2,42.32 0,0 -9.2,-59.05 -26,-2.63 -31.4,105.09 -76.5,167.75 -76.5,167.75 -114.5,-51.71 -213.2,-108.76 -298.4,-168.03 l 0.4,0.35 c 0,0 -0.8,-0.62 -2.3,-1.69 -10.9,-7.57 -21.5,-15.18 -31.9,-22.81 -61.4,-43.29 -179.2,-123.04 -127.7,-60.12 54.5,66.64 125,108.75 151.4,123.12 -165.5,-87.22 -212.5,-168.16 -212.5,-168.16 52.7,30.7 82.1,26.5 28.1,-29.98 -6.7,-6.5 -13.3,-12.98 -19.8,-19.46 -0.3,-0.34 -0.7,-0.66 -1,-1 -251.5,-252.97 -302.3,-491.75 -302.3,-491.75 20.4,117.39 72.4,196.08 72.4,196.08 -162.4,-241.62 -154.6,-459.69 -154.6,-459.69 295,31.41 587.7,230.57 587.7,230.57 0,0 -206,-108.02 -83.7,-27.49 48.5,31.97 104.8,64.33 155.1,91.76 1.1,0.62 2.5,1.34 3.9,2.14 46.6,25.85 2.8,-27.65 2.8,-27.65 46.3,45.78 91.7,0.14 73.2,-72.56 -5.9,-14.73 -11.9,-29.55 -18.2,-44.43 -124.2,-295.94 -315.5,-614 -315.5,-614 -1.5,221.77 198.6,467.78 198.6,467.78 -44.1,-49.4 -86.2,-105.39 -125.6,-164.45 -1.4,-1.56 -3,-3.38 -5.1,-5.82 -25.5,-30.36 10.4,56.87 10.4,56.87 0,0 -42.6,-82.98 -48.7,-33.78 -6.2,49.19 111.7,219.8 111.7,219.8 -106.4,-123.19 -155.6,-275.39 -155.6,-275.39 0,0 95.4,94.4 47.6,-23.28 -179.3,-289.34 -296.4,-621.8 -296.4,-621.8 0,0 255,458.24 251.6,417.74 -3.5,-40.5 -45.7,-155.61 -45.7,-155.61 127.5,139.49 194.1,272.85 194.1,272.85 l -102.7,-144.42 c 19.6,117.14 208.1,338.08 208.1,338.08 l -73.4,-146.2 c 114.1,171.24 160.5,318.09 195.4,350.31 34.9,32.23 89.3,129.57 89.3,129.57 0,0 -36.8,-43.56 6.4,66.5 43.3,110.07 49.2,196.11 49.2,196.11 -52.9,-49.02 -107.5,-89.56 -161.8,-123.29 -38,-21.19 -242,-101.04 -289.3,-65.44 -48.9,36.83 -122.2,240.37 -31.2,396.71 144.6,186.39 298.4,280.42 298.4,280.42 -174.3,-103.67 -265.9,-214.21 -265.9,-214.21 162.3,236.2 417.7,332.51 417.7,332.51 101.6,-252.01 55.9,-561.75 55.9,-561.75 22.2,17.55 44.4,37.05 65,56.29 3.2,2.93 6,5.59 8.8,8.25 56.7,46.04 52,-124.17 44.8,-149.65 -54.7,-197.45 -125.1,-343.44 -125.1,-343.44 273.9,345.72 340.5,600.94 340.5,600.94 -33.6,-125.01 -205.6,-357.03 -205.6,-357.03 74,97.47 125.7,337.89 125.7,337.89"
         style="fill:#000000;fill-opacity:1;fill-rule:nonzero;stroke:none"
         id="path22" />
      <path
         d="m 10053.8,3743.89 c 0,0 4.7,-29.3 -3.5,-77.54 -6.7,-7.32 -3.4,29.84 -3.4,29.84 -11.2,-2.3 -34.5,1.76 -27.1,15.22 z m -195.92,-356.22 c 0,0 93.96,77.46 76.94,39.57 -37.26,-46.04 -85.72,-94.35 -149.13,-143.03 0,0 11.97,24.47 15.99,75.64 11.7,39.33 56.2,27.82 56.2,27.82 z m -319.14,-207.08 c 10.36,26.97 13.5,-89.21 13.5,-89.21 0,0 29.21,-43.88 7.08,-85.42 -21.37,-27.45 -47.03,-55.5 -78.09,-83.58 0,0 29.09,110.74 57.5,258.2 0,0.01 0,0.01 0.01,0.01 z m 512.46,795.39 c 0,0 21.7,-33.71 3.2,-72.88 l -136.13,-288.71 69.75,66.63 c 25.88,24.75 76.48,31.73 50.18,-65.95 -10.9,-35.86 -28.5,-77.48 -56.69,-122.68 -60.2,-65.67 -170.89,-141.89 -179.38,-69.12 -2.24,39.45 -9.11,87.34 -24.21,144.36 0,0 -66.39,-221.29 -118.48,-264.86 0,0 18.78,-110.96 -66.23,-248.22 -31.04,-39.61 -57.29,90.24 -36.9,223.35 16.7,99.45 30.71,207.11 34.83,305.09 -4.79,-53.2 -28.73,-186.68 -139.5,-451.55 -10.53,-24.75 -16.93,30.94 -15.15,50.57 1.79,19.7 116.44,308.9 116.44,308.9 l -124.97,-293.49 c 0,0 23.36,-65.91 -11.36,-147.41 -21.19,-48.03 -44.8,-99.6 -71.39,-155.3 l -55.35,-125.18 c 0,0 53.61,-21.48 -66.13,-236.92 0,0 81.14,65.81 180.23,191.98 99.85,124.85 73.17,28.47 73.17,28.47 0,0 95.06,84.71 128.45,145.18 0,0 -94.48,-113.47 -121.06,-107.23 -26.58,6.24 6.23,54.72 6.23,54.72 l -1.24,-1.74 c 75.39,115.3 150.99,261.24 202.86,436.1 0,0 49.02,-24.95 6.18,-90.33 0,0 4.32,-80.22 -20.63,-129.24 -24.94,-49.02 -55.81,-122.65 -55.81,-122.65 0,0 143.95,183.31 149.6,124.25 0,0 98.05,248.03 119.07,204.86 0,0 51.18,90.82 102.68,208.89 68.34,132.29 73.44,-30.11 -49.87,-183.49 0,0 101.21,65.69 157.51,356.99 0,0 -20.4,-93.92 -45.7,-133.87 -25.3,-39.94 -2.5,113.31 -2.5,113.31 l -0.3,-0.81 c 22.5,67.29 39.7,135.02 44.3,194.37 0,0 -22.2,-13.17 -61.2,-56.94 l 134.4,383.07 -95.2,-201.93 c -5.5,-11.61 -9.5,0.67 -11.7,12.68 -2.2,12 168.7,407.17 168.7,407.17 l -180.7,-390.44"
         style="fill:#000000;fill-opacity:1;fill-rule:nonzero;stroke:none"
         id="path24" />
      <path
         d="m 6148.51,1631.61 c 0,0 -66.65,-57.88 -68.13,-45.27 7.17,32.88 15.49,64.87 26.14,95.14 44.27,71.02 96.52,47.29 130.76,-9.93 0.32,-12.41 -88.77,-39.94 -88.77,-39.94 z M 5981.02,1260.7 c 12.09,21.97 10.15,-44.46 10.15,-44.46 0,0 69.11,7.31 61.27,0.17 -64.76,-58.98 -140.55,-120.64 -183.47,-130.11 0,0 59.64,81.83 110.93,172.5 0.31,0.48 0.66,1.07 1.12,1.9 z m -0.6,-270.848 c -26.1,-32.961 -24.34,111.018 1.39,146.798 20.32,20.56 40.83,42.69 61.43,66.68 0,0 -6.66,-110.35 -62.82,-213.478 z M 5741.9,818.051 c -3.82,-0.051 -10.04,-0.692 -19.57,-2.192 -2.98,-0.25 -6.04,-0.39 -9.08,-0.57 -32.39,2.012 32.31,62.762 32.31,62.762 0,0 18.8,85.308 55.98,109.898 35.43,23.211 74.6,52.261 115.78,88.141 0.33,0.28 0.6,0.5 0.95,0.79 44.04,36.56 62.74,-85.618 14.07,-156.661 -43.98,-50.25 -105.22,-90.41 -190.44,-102.168 z M 5588,602.148 c -14.23,-6.328 -28.61,-12.816 -42.97,-19.398 -53.61,-25.109 -97.24,-23.168 -111.44,-18.879 -14.2,4.301 92.79,134.82 116.63,139.32 22.89,4.258 58.02,11.079 87.26,16.797 37.6,7.321 24.14,-85.746 -49.48,-117.84 z m -179.46,-265.757 -1.6,-1.121 c 0.53,0.371 1.07,0.75 1.6,1.121 z m -24.92,233.379 c 0,0 -39.63,-32.379 -54.51,-59.461 0,0 31.19,98.5 135.14,162.023 l -64.29,-81.043 c 0,0 85.69,83.652 119.42,103.832 9.65,4.301 -107.33,-143.141 -107.33,-143.141 0,0 107.78,20.872 52.17,-7.57 -63.72,-31.441 -120.44,-62.801 -154.54,-89.101 0,0 36.23,72.492 73.94,114.461 z m 503.2,809.91 c 4.36,11.79 15.31,40.54 28.96,76.18 18.68,28.98 31.02,-7.3 31.02,-7.3 0,0 77.81,105.34 72.19,77.7 -33.13,-65.62 -71.8,-137.47 -116.57,-213.99 -0.02,0.02 -31.8,23.63 -15.6,67.41 z m 220.22,303.33 -0.19,-0.54 c 0.06,0.18 0.13,0.36 0.19,0.54 z m 29.29,128.43 c -16.67,10.5 -14.37,27.53 -14.37,27.53 0,0 -41.33,-20.18 -24,0.63 15.87,15.56 31.33,25.97 41.33,21.11 l 45.91,56.02 c 0,0 -14.14,-46.3 -46.34,-126.68 -13.74,-21.47 -2.53,21.39 -2.53,21.39 z m 90.87,-86.49 c 0,0 -106.95,-8.66 -85.41,33.71 54.84,93.21 93.64,185.51 104.83,281.73 0,0 -37.87,-111.54 -104.89,-161.81 0,0 71.92,158.79 113.07,192.17 0,0 74.72,176.76 102.4,277.31 0,0 -96.24,-258.16 -229.6,-392.98 0,0 -49.73,-86.72 -90.05,-191.18 0,0 10.63,16.09 25.37,35.22 0.11,0.1 26.97,22.1 45.14,29.6 18.2,7.52 32.37,-34.63 11.19,-86.35 -18.65,-44.25 -41.61,-95.81 -69.3,-153.32 -27.27,-37.47 -87.23,-127.2 -104.87,-127.87 -17.65,-0.67 -8.03,50.13 -8.03,50.14 34.31,89.32 72.85,189.24 72.85,189.24 l -151.59,-314.89 c 0,0 54.65,-55.01 1.33,-144.82 -65.44,-106.77 -142.2,-221.07 -231.63,-338.979 0,0 38.15,10.258 98.58,41.91 -3.56,-3 -0.24,-1.48 15.9,8.539 57.91,35.95 -28.7,-136.269 -75.23,-137.179 -34.73,1.75 -72.6,7.57 -114,18.39 0,0 -42.55,-21.269 -93.49,-76.222 0,0 47.59,69.851 122.45,126.601 0,0 -39.91,-24.371 -92.28,-73.621 0.04,0.063 -93.95,-81.598 -27.39,47.742 66.56,129.34 200.33,238.909 200.33,238.909 -165.78,-122.561 -264.35,-287.381 -264.35,-287.381 0,0 75.45,9.113 15.4,-81.219 -52.54,-65.141 -105.28,-150.93 -137.88,-258.09 0,0 39.45,-12.23 -22.14,-74.141 0,0 164.53,151.911 335.14,176.473 0,0 -232.65,-238.703 -419.19,-451.633 0,0 122.41,134.09 236.15,213.66 92.83,54.481 126.7,27.02 126.7,27.02 l 131.56,100.18 c 0,0 -130.1,-85.977 -148.85,-89.77 -18.75,-3.777 -43.91,1.121 -29.27,9.691 0.27,0.149 0.44,0.282 0.68,0.418 113.28,63.25 160.06,168.25 192,117.743 0,0 95.8,80.988 144.58,200.738 0,0 -81.96,-31.879 -182.44,-75.258 -21.86,-6.59 21.5,50.848 21.5,50.848 0,0 -10.69,39.961 13.27,48.863 4.29,1.59 6.12,2.777 6.35,3.68 4.43,0.867 7.02,1.386 7.02,1.386 0,0 -18.27,13.032 35.07,29.403 53.33,16.371 192.77,48.801 273.44,207.808 0,0 -38.94,-65.679 -61.13,-65.937 -22.19,-0.274 57.68,74.547 83.65,154.438 23.97,73.74 39.56,59.73 27.38,17.85 6.2,18.51 20.04,58.29 38.69,102.97 42.85,66.4 108.51,85.18 108.51,85.18 l 67.14,188.37 c 0,0 -93.34,-186.31 -100.45,-196.87 -7.1,-10.55 -63.9,-48.06 -49.9,-20.18 17.6,36.47 37.48,71.66 58.21,97.22 0,0 -29.7,-31.05 -71.38,-71.05 -39.89,-30.35 -160.41,-100.3 -77.9,78.05 13.98,30.79 24.75,60.16 29.45,85.13 7.1,37.84 13.38,76.1 20.41,113.72 17.24,80.75 159.63,136.98 180.6,108.57 20.37,-46.96 29.62,-106.49 18.12,-156.31 0,0 88.38,172.76 94.66,402.76 0,0 -23.25,-185.73 -68.1,-236.71 -44.85,-50.98 -42.63,22.08 -68.38,70.39"
         style="fill:#000000;fill-opacity:1;fill-rule:nonzero;stroke:none"
         id="path26" />
      <path
         d="m 11975.7,2798.04 c 22.6,-4.45 -15.3,-176.31 -60.2,-238.13 -55.6,-56.18 -115.9,-112.03 -127.3,-102.03 0,0 -41.5,-96.98 -84.9,-127.31 0,0 -23.6,129.64 0.8,214.95 24.4,85.31 38.1,-88.11 38.1,-88.11 0,0 35.9,124.88 131.2,271.72 0.6,0.95 1.5,2.26 2.4,3.79 0.5,0.74 1,1.49 1.5,2.24 22,33.64 76.1,67.3 98.4,62.88 z m 1.7,-173.75 c -17.5,-18.58 -39.3,-41.47 -61.9,-64.38 0,0.03 41.3,42.95 61.9,64.38 z m 1146,1159.55 c -210.4,-13.76 -114.2,55.62 -114.2,55.62 0,0 -511.4,-161.19 -491.2,-127.7 141.6,100.34 339.8,189.93 607.6,210.13 0,0 148.5,13.41 166.3,-38.13 17.8,-51.55 -18.8,-296.76 -18.8,-296.76 0,0 30.1,96.87 38.2,195.8 0,0 23.4,-154.12 -106.3,-459.98 -29.8,-32.09 -20.4,227.25 -20.4,227.25 -129.8,175.68 -61.2,233.77 -61.2,233.77 z m 191.4,217.4 c 0,0 -556.1,-132.17 -693.2,-208.3 -137.2,-76.13 22.5,40.46 22.5,40.46 0,0 -224.4,-85.07 -274.4,-140.76 0,0 15.6,272.58 562.5,738 0,0 -296.7,-221.07 -527,-541.78 -0.3,-0.35 -0.5,-0.65 -0.8,-1.04 -9.9,-13.71 -11.6,19.85 -1.5,39.27 10.2,19.41 237.1,331.48 237.1,331.48 l -247.8,-312.4 c 0,0 15.2,-54.26 -39,-133.33 -58.7,-90.38 -110.6,-187.37 -148.4,-288.57 0,0 49.2,18.9 11.2,-88.39 l 4,-50.54 c 0,0 59.7,123.37 204.6,252.25 111.9,91.74 574.3,168.79 617.4,140.16 4.8,-3.19 11.2,-9.9 18.5,-19.37 1,-1.69 2.4,-3.61 4.5,-5.94 0.7,-1.06 1.5,-2.18 2.3,-3.3 12.9,-24.43 -91,-45.41 -155.3,-69.09 -66.9,-24.6 -143.9,-14.74 -143.9,-14.74 l 69.9,-12.1 c 0,0 0.4,-28.41 -14.5,-47.28 -14.9,-18.86 -250.2,-199.71 -250.2,-199.71 l 257.6,173.89 c 0,0 1.1,40.28 14.7,59.39 13.5,19.08 223.1,106.82 266.3,30.15 54.4,-116.81 104.6,-307.6 32.2,-478.93 -132.7,-267.34 -230,-340.77 -230,-340.77 0,0 -463.9,-89.45 -627.9,-9.53 -52.7,25.64 -94.5,69.13 -127.1,116.35 -17.2,110.08 25.7,51.19 25.7,51.19 3.5,19.24 6.3,43.04 8.5,68.52 6.1,99 106.1,111.9 106.1,111.9 l 182.4,127.85 c 0,0 -181.8,-83.39 -215.2,-120.55 -33.5,-37.17 -69.4,-68.77 -68.1,-38.59 3.2,68.36 3.5,128.37 3.5,128.37 0,0 -6.9,-68.29 -18.4,-137.58 -1.3,-2.72 -2.1,-4.66 -2.1,-4.66 l 0.7,-3.62 c -14.2,-82.55 -34.6,-162.71 -57.2,-126.63 -44.2,82.81 -62.6,160.4 -62.6,160.4 0,0 -89.7,-102.08 -82.7,-5.45 0,0 -111.7,-145.28 -211.6,-407.92 -0.3,-0.76 -0.6,-1.45 -0.9,-2.23 -32.6,-81.25 -23,-51.68 -23.7,-9.39 -0.8,42.29 133.4,323.84 133.4,323.84 -99,-140.49 -149.9,-331.05 -149.9,-331.05 0,0 26,-21.93 -0.6,-100.85 -41.3,-129.96 -77,-282.19 -96.3,-454.19 0,0 54.1,105.16 137.1,193.37 0,0 -48.4,-99.35 -57.2,-140.82 0,0 18.5,-14.75 -3.9,-66.71 0,0 -17.2,-64.62 -2,-144.85 0,0 -27.9,142.24 310.7,637.7 0,0 -12.2,-13.5 -30.9,-33.55 -27,-27.75 9.3,177.66 9.3,177.66 -65.4,-22.21 -63.9,-0.86 -32,38.63 17,20.1 35.2,40.12 54.5,59.8 0,0 150.5,9.6 117.9,-57.4 0,0 210.4,-121.59 346.1,-128.62 0,0 -77.4,7.25 -138.6,67.53 0,0 186,-87.74 364.3,-103.14 0,0 -93.1,2.49 -135.7,8.95 0,0 185.2,-53.08 312.9,-40.94 0,0 -27.1,81.81 51.1,72.28 0,0 53.7,51 119.7,145.03 78.5,73.87 103,-4.8 103,-4.8 0,0 116.4,213.95 131,405.05 0,0 -49.8,-229.23 -137.3,-342.91 -58.9,-76.68 -6.4,69.7 34.1,173.13 12.6,28.3 24.7,58.09 35.9,89.21 0.2,0.38 0.3,0.64 0.3,0.64 20.2,55.82 37.8,116.24 51,180.86 82.5,404.12 43.4,629.01 43.4,629.01"
         style="fill:#000000;fill-opacity:1;fill-rule:nonzero;stroke:none"
         id="path28" />
      <path
         d="m 6740.51,3984.6 c -6,-18.81 -15.34,-27.5 -21.11,-31.33 13.91,32.1 22.33,52.91 22.33,52.91 4.67,-15.62 8.8,-30.09 12.52,-43.64 z m 70.86,-152.1 c 6.02,11.81 32.37,28.51 44.78,35.91 -27.3,-49.7 -59.03,-90.28 -59.03,-90.28 0,0 -7.85,50.67 -12.21,110.9 12.32,-9.45 26.46,-56.53 26.46,-56.53 z m -287.1,-315.64 c 0,0 12.85,5.55 11.85,-5.65 l -58.28,-49.1 c 0,0 12.58,52.83 47.97,124.79 2.48,-13.2 6.35,-42.6 -1.54,-70.04 z m 76.93,-42.89 c 4.53,25.62 4.71,58.21 -29.84,39.98 38.79,42.97 60.75,34.82 29.84,-39.98 z m -213.36,-401.99 c 0,0 48.23,13.34 50.62,8.52 -41.35,-31.46 -84.42,-53.32 -84.42,-53.32 0,0 18.17,40.47 48.2,97.82 1.06,-13.15 -14.4,-53.02 -14.4,-53.02 z m -79.88,-131.42 39.57,31.24 c -10.37,-21.8 -24.51,-45.04 -40.85,-68.66 -5.15,1.36 1.28,37.42 1.28,37.42 z m 632.51,1381.64 c -27.7,-174.3 -89.6,-369.77 -89.6,-369.77 0,0 42.36,112.4 43.98,32.58 0.57,-27.69 -11.02,-61.05 -26.39,-92.82 -0.41,-0.76 -0.92,-1.79 -1.55,-3.13 -0.2,-0.42 -0.41,-0.83 -0.62,-1.25 -9.53,-19.95 -51.72,-45.34 -51.72,-45.34 0,0 -29.13,39.97 -31.42,75.64 -1.05,21.98 -1.45,44.33 -0.69,65.27 3.26,89.59 -27.69,174.3 -27.69,174.3 -26.07,-79.82 -42.36,-78.19 -42.36,-78.19 0,0 -22.8,-123.8 -66.78,-255.75 -30.11,-90.31 -88.44,-163.81 -141.58,-225.24 8.27,31.3 25.92,60.72 25.92,60.72 52.94,95.94 87.9,158.62 87.9,158.62 -34.96,-58.64 -98.49,-152.11 -98.49,-152.11 0,0 2.29,-46.59 -52.69,-109.96 -10.55,-12.14 -20.59,-23.85 -29.57,-35.01 -60.27,-74.94 -99.37,-219.91 -99.37,-219.91 43.98,63.53 87.97,58.64 87.97,58.64 27.69,50.5 104.25,97.74 104.25,97.74 9.72,15.73 19.18,29.31 28.09,40.75 28.1,33.26 65.65,23.4 28.47,-56.32 -1.93,-3.93 -3.93,-7.95 -6.06,-12.13 -29.18,-57.07 -70.68,-118.06 -110.51,-171.31 -1.67,-1.74 -3.15,-3.75 -4.46,-5.96 -60.77,-80.63 -116.35,-142 -116.35,-142 3.26,-29.32 -79.81,-86.34 -79.81,-86.34 27.69,-26.06 -45.61,-149.86 -45.61,-149.86 l 73.97,58.4 c 0.01,0 15.53,-19.73 -8.68,-53.92 -84.66,-113.58 -208.64,-227.65 -208.64,-227.65 124.85,110.07 213.5,202.38 276.34,276.55 47.01,47.62 58.41,39.47 58.41,39.47 0,0 50.67,51.83 69.61,100.19 -5.78,-13.66 -26.01,-54.13 -77.15,-96.83 -19,-15.87 -21.37,-12.3 -15.49,0.31 93.3,118.14 111.81,178.77 111.81,178.77 -6.93,-12.87 -17.24,-25.53 -29.22,-37.55 -33.74,-29.31 -70.17,-36.15 -78.3,-33.71 -8.07,2.42 26.18,84.72 33.71,98.46 8.16,14.65 16.83,29.81 25.96,45.24 35.15,56.7 124.41,62.77 124.41,62.77 0,0 36.65,51.37 118.91,70.08 0,0 30.14,33.36 43.98,81.41 0,0 -39.15,-93.26 -125.49,-105.47 l 18.8,67.19 c 0,0 -24.31,-64.62 -33.34,-80.63 -16.14,-28.6 -100.48,-52.53 -121.54,-53.15 27.71,44.01 58.39,88.15 90.53,126.45 118.92,141.72 125.43,247.6 125.43,247.6 -35.84,-42.35 -60.27,-35.84 -60.27,-35.84 -40.72,-78.18 -78.19,-71.47 -78.19,-71.47 l -10.71,-9.02 c -36.4,-30.66 -7.83,93.95 -7.77,94.2 10.94,20.13 23.55,41.29 38.03,62.86 45.95,68.43 95.39,172.61 127.61,245.02 -0.01,-0.02 34.06,53.48 34.06,53.48 0,0 11.55,-6.83 22.6,-48.5 38.69,-155.22 6.32,-149.01 6.32,-149.01 13.03,-115.65 -16.29,-289.96 -16.29,-289.96 24.54,42.34 46.06,88.49 64.7,134.76 13.86,35.78 41.93,57.87 51.94,65.61 0,0 22.84,44.16 24.06,122.58 0,0 -2.65,-65.37 -33.91,-127.21 0,0 -19.1,-21.95 -30.14,-30.19 58.31,154.88 84.61,301.97 84.61,301.97 0,0 -16.29,4.88 -8.14,94.48 8.14,89.59 34.21,270.4 34.21,270.4"
         style="fill:#000000;fill-opacity:1;fill-rule:nonzero;stroke:none"
         id="path30" />
      <path
         d="m 5232.22,3135.55 c 52.79,11.72 -58.15,-136.72 -92.64,-150.64 -26.96,-3.24 -45.49,-2.42 -50.59,4.37 -14.01,18.68 13.6,55.14 45.67,87.67 21.28,21.59 46.08,39.09 73.04,51.69 7.35,2.52 15.45,4.9 24.52,6.91 z m 0.85,-210.3 c -8.98,-7.81 -20.11,-16.78 -32.69,-26.48 -27.47,-13.35 -17.34,49.65 -17.34,49.65 0,0 -66.51,23.15 -39.85,29.62 100.41,19.12 168.32,22.45 168.32,22.45 0,0 -4.8,-11.21 -78.44,-75.24 z m 526.28,663.51 c -47.92,9.58 -255.03,18.75 -184.1,42.97 38.87,8.92 82.09,16.49 130.07,21.91 283.35,32.02 220.64,-64.89 179.29,-148.88 -41.34,-84 -132.87,-123.27 -132.87,-123.27 l 74.87,86.49 c -15.91,-16.53 -36.76,-34.82 -59.83,-53.38 -2.54,-1.84 -6.03,-4.6 -10.74,-8.54 -47.72,-39.87 3.31,182.7 3.31,182.7 z m -63.5,614.19 c 0,0 35.67,-32.36 21.92,-55.61 -10.23,-16.99 -17.25,-26.25 -17.25,-26.25 76.84,68.84 -4.81,-104.18 -30.42,-104.06 -25.61,0.13 -6.4,52.83 -6.4,52.83 -41.63,-70.44 -99.26,-113.66 -99.26,-113.66 24.52,45.98 46.46,116.86 62.69,178.31 14.82,45.49 68.72,68.44 68.72,68.44 z M 5542.7,4039.13 c 0,0 -30.63,-33.95 -29.19,-16.45 46.35,54.02 92.56,104.81 92.56,104.81 -1.83,-19.19 -5.99,-39.3 -11.5,-59.3 -6.54,-18.39 -51.87,-29.06 -51.87,-29.06 z M 5110.47,2971.47 c 1.38,-0.19 3.26,-0.16 5.75,0.2 15.28,2.23 116.84,-46.42 27.11,-115.11 -89.83,-64.39 -200.02,-136.22 -200.02,-136.22 118.47,64.04 110.46,30.42 110.46,30.42 254.54,108.86 158.49,28.81 80.05,-64.04 -78.45,-92.85 -273.75,-222.51 -273.75,-222.51 316.97,172.89 486.66,406.61 486.66,406.61 -68.84,-51.22 -265.98,-83.24 -265.98,-83.24 10.97,32.02 307.6,163.29 307.6,163.29 0,0 -12.81,3.2 17.61,32.19 30.42,29 107.26,57.45 107.26,57.45 -46.43,16.01 60.83,62.44 60.83,62.44 0,0 -226.65,-75.55 -370.55,-106.7 -2.87,-0.23 -6.26,-0.53 -10.24,-0.93 -64.5,-6.46 15.5,41.68 15.5,41.68 0,0 45.02,97.64 68.15,112.14 12.91,1.77 26.02,2.51 39.24,2.07 93.77,-3.09 38.58,-56.27 38.58,-56.27 51.23,19.21 84.85,0 84.85,0 l 116.86,51.23 c 72.04,52.83 115.26,32.01 115.26,32.01 139.28,81.65 224.12,252.94 224.12,252.94 0,0 -110.46,-76.84 -3.2,32.22 107.26,109.06 116.86,215.91 116.86,215.91 -16.01,-73.64 -92.85,-123.26 -92.85,-123.26 68.85,158.98 -236.24,136.86 -404.69,105.89 -25.94,3.48 47.03,57.35 47.03,57.35 0,0 7.75,24.01 16.68,54.43 8.94,30.41 104.72,184.09 104.72,184.09 L 5565.11,3792.2 c 32.02,-17.49 -50.42,-125 -94.18,-138.61 -26.73,-5.95 -46.94,-11.66 -56.97,-15.96 -67.23,-28.82 -22.41,14.41 -22.41,14.41 -46.42,-36.82 -116.86,-20.81 -116.86,-20.81 78.44,126.46 166.49,164.88 166.49,164.88 -32.02,3.21 -3.2,41.62 -3.2,41.62 0,0 -25.62,30.42 -17.61,62.44 2.97,11.91 29.44,46.42 61.49,85.05 60.82,60.3 109.61,70.13 102.87,51.29 -24.97,-72.87 -61.91,-136.34 -61.91,-136.34 275.35,51.23 272.15,486.66 272.15,486.66 -7.58,-93.8 -39.27,-169.65 -63.88,-215.94 -12.83,-12.23 -30.44,44.87 -30.44,44.87 0,0 -54.44,-53 -63.23,-40.64 11.51,47.42 18.27,82.04 18.27,82.04 -108.86,-105.66 -256.13,-332.98 -256.13,-332.98 19.21,17.61 19.48,-41.79 1.6,-96.05 -17.88,-54.25 -100.86,-76.84 -100.86,-76.84 -10.15,-16.08 -31.32,-49.12 -56.89,-88.93 -9.7,-15.09 -8.07,16.05 -20.08,60.07 -12,44.02 79.47,161.68 79.47,161.68 -61.4,-69.63 -141.9,-234.52 -141.9,-234.52 0,0 40.02,53.63 52.03,67.24 12,13.6 33.26,-50.14 -9.97,-117.37 -64.96,-100.93 -136.38,-211.56 -136.38,-211.56 0,0 131.27,179.29 96.05,104.05 -35.22,-75.24 -145.68,-212.91 -145.68,-212.91 182.5,148.88 289.76,206.51 289.76,206.51 -4.14,19.64 45.24,70.66 157,112.96 97.67,34.72 275.36,-21.49 275.36,-21.49 0,0 9.67,-176.44 -47.81,-219.34 -64.69,-46.28 -123.61,-83.44 -123.61,-83.44 84.71,36.82 150.48,78.44 150.48,78.44 -152.09,-153.68 -425.83,-193.7 -425.83,-193.7 83.24,17.6 236.93,97.65 236.93,97.65 -153.69,-67.24 -323.38,-104.06 -323.38,-104.06 -96.05,-51.22 -105.65,-4.8 -105.65,-4.8 -41.94,-26.29 -90.72,-71.68 -134.59,-117.21 -8.43,-8.66 -61.11,14.97 -63.72,38.45 -2.6,23.48 94.8,161.67 94.8,161.67 l -124.21,-160.6 c 0,0 100.85,-31.54 34.97,-102.68 -39.4,-44.64 -66.59,-78.97 -66.59,-78.97 96.15,40.39 190.72,66.37 269.61,83.04"
         style="fill:#000000;fill-opacity:1;fill-rule:nonzero;stroke:none"
         id="path32" />
      <path
         d="m 7941.08,2296 c 0,0 31.34,12.95 27.26,2.32 -0.7,-1.85 -0.47,-2.1 0.33,-1.37 -3.38,-10.58 -7.15,-21.92 -11.36,-34.03 -6.76,-19.48 -16.23,33.08 -16.23,33.08 z m -24.49,56.12 c -98.16,-43.73 -172.94,-54.11 -169.07,-40.77 71.08,49.83 164.81,103.04 250.51,111.78 0,0 -0.31,-26.97 -19.47,-93.68 -0.29,-0.59 -19.45,-39.28 -43.43,-20.08 -24.17,19.35 -18.54,42.75 -18.54,42.75 z m -31.02,249.97 c 22.55,40.77 -3.23,-114.47 -28.68,-142.68 0,0 133.37,32.13 111.92,1.47 -72.27,-41.92 -156.93,-94.25 -214.52,-140.19 0,0 46.22,123.44 131.28,281.4 z m 229.03,346.93 c 0.12,0.15 0.25,0.3 0.38,0.45 5.36,6.24 7.96,9.36 8.52,10.2 25.03,29.69 51.17,58.43 78.41,85.65 0,0 -21.03,-10.34 -33.4,-14.5 -12.36,-4.17 -81.56,70.59 -81.56,70.59 0,0 26.6,79.51 103.51,127.47 0,0 -13.62,-99.89 7.65,-161.34 0,0 111.37,150.48 356.07,115.33 0,0 -98.12,-44.54 -143.13,-101.94 -9.28,-11.83 -17.04,-23.3 -23.7,-34.15 0.04,0.15 -20.77,-20.72 -51.56,-26.84 0,0 -259.37,-115.5 -221.19,-70.92 z m 430.92,954.35 c 0,0 -6.74,-67.79 -29.77,-113.64 0,0 70.08,73.89 -9.18,-39.71 5.49,7.87 58.76,82.45 174.29,180.75 43.62,35.75 171.75,49.11 171.75,49.11 0,0 -38.79,-368.39 -95.02,-521.47 -2.57,-6.53 -5.17,-13.07 -7.81,-19.63 -8.15,-18.74 -12.78,-30.13 -14.73,-35.86 -15.26,-36.42 -31.6,-73.27 -49.14,-110.32 l -77.14,-18.72 c 0,0 24.15,-9.68 -75.23,-37.79 -99.38,-28.1 -295.8,-108.56 -295.8,-108.56 0,0 14.67,118.28 34.65,195.75 0,0 -38.59,-63.08 11.99,63.49 0,0 -15.98,-30.66 -50.66,-78.96 0.17,0.41 -16.79,237.74 8.16,308.48 109.14,112.01 235.95,237.29 303.64,287.08 z m 49,0.57 c 8.85,20.16 68.61,30.7 62.84,18.12 -29.49,-28 -55.14,-54.41 -74.93,-77.95 0,0 7.01,24.85 12.08,59.8 0.01,0.01 0.01,0.02 0.01,0.03 z m 150.85,78.83 c 52.49,40.24 114.35,82.84 186.62,125.44 0,0 -27.35,-228.68 -127.73,-522.71 0.12,2.04 0.23,4.1 0.38,6.32 5.74,87.45 61.51,316.06 61.51,316.06 0,0 -31.34,27.02 7.73,96.07 0,0 -177.86,-76.07 -128.51,-21.18 z M 7933.99,2199.63 c -7.56,-19.5 -212.65,-96.32 -212.65,-96.32 l -335.67,-390.7 c 0,0 185.6,202.52 370.15,327.77 0,0 3.21,18.65 11.97,42.01 8.75,23.36 64.22,82.5 172.12,66.95 0,0 37.21,55.33 77.49,134.68 27.71,57.84 121.6,100.49 121.6,100.49 l 125.07,224.57 c 0,0 -142.21,-209.99 -164.63,-235.57 -21.57,-24.64 -64.78,-63.47 -35.25,13.24 0.85,2.12 1.69,4.25 2.53,6.38 0.4,1 0.76,1.94 1.19,2.98 4.99,12.14 8.22,20.97 10.16,27.32 13.49,37.88 24.73,76.96 31.53,115.35 0,0 -27.61,-14.38 -68.71,-37.1 -61.98,-34.96 -167.09,-27.09 -167.09,-27.09 0,0 29.29,165 71.91,233.22 4.19,6.7 7.18,11.65 9.23,15.23 31.54,51.59 66.53,104.35 104.72,155.8 30.66,39.52 323.32,172.65 304.89,125.55 -9.27,-19.53 -14.35,-32.48 -19.13,-34.21 -9.74,-3.52 -25.52,-7.4 -25.52,-7.4 l -128.69,-178.74 c 0,0 131.07,165.65 134.55,166.23 3.49,0.58 20.33,6.96 20.33,6.96 l -224.27,-362.71 c 0,0 241.35,361.34 250.92,373.46 0,0 -9.64,61.8 40.9,102.43 50.54,40.62 184.74,106.32 220.13,118.95 35.4,12.62 58.18,7.35 58.18,7.35 0,0 -11.34,8.65 16.08,50.28 27.41,41.63 68.43,102.79 68.43,102.79 0,0 -40.54,-55.19 -80.65,-83.76 -40.12,-28.58 79.57,209.33 109.58,240.43 30,31.11 -13.27,-111.52 -13.27,-111.52 0,0 44.38,79.26 99.26,198.99 52.15,119.69 112.06,17.15 -1.56,-155.92 0,0 183.76,126.17 280.39,515.48 0,0 -78.75,-210.64 -147.23,-276.94 -68.49,-66.31 -103.81,-32.94 -60.99,82.8 62.35,158.05 120.69,344.56 132.6,511.13 l 66.15,53.12 c 0,0 -288.53,-205.72 -472.34,-372.73 -23.53,-21.09 -92.93,-40.11 -89.79,-8.99 1.13,16.8 1.44,34.57 0.18,52.18 0,0 -158.73,-221 -369.84,-334.66 l 230.46,423.66 c 0,0 -219.75,-392.05 -350.9,-547.93 0,0 10.17,-49.93 -64.31,-126.45 0,0 61.59,66.43 143.53,151.66 65.35,46.85 30.58,-273.38 -20.04,-336.13 -29.15,-33.82 -64.1,-70.87 -105.43,-109.21 0,0 7,-9.15 -4.28,-21.14 -11.27,-11.98 -32.59,-20.58 -32.59,-20.58 0,0 99.68,-75.06 108.45,-83.5 8.78,-8.44 -136.28,-160.93 -136.28,-160.93 l 49.91,38.1 -107.56,-151.21 26.16,58.06 -114.38,-182.47 c 0,0 9.49,139.33 19.41,177.21 9.92,37.88 16.01,49.42 16.01,49.42 l 8.19,144.59 114.37,107.69 -80.78,-63.98 c 0,0 5.03,9.05 9.17,28.49 4.14,19.43 88.54,160.47 88.54,160.47 0,0 -98.03,-150.25 -106.3,-167.64 -8.28,-17.38 -11.29,-33.47 -19.94,-44.8 -8.64,-11.34 -19.46,-25.94 -19.46,-25.94 0,0 10.02,-5.97 4.71,-39.92 -5.31,-33.95 0.3,-103.16 -40.27,-148.03 0,0 -13.78,-203.44 -31.83,-235.51 -18.05,-32.07 -180.8,-313.78 -180.8,-313.78 0,0 14.65,13.77 39.2,34.09 45.35,36.06 236.66,86.83 236.66,86.83 0,0 52.6,-66 34.47,-117.11 -2.88,-7.69 -5.86,-15.56 -9.05,-23.77"
         style="fill:#000000;fill-opacity:1;fill-rule:nonzero;stroke:none"
         id="path34" />
      <path
         d="m 1713.87,2211.47 c -7.62,-33.89 -55.13,-72.17 -55.13,-72.17 0,0 -2.52,-29.56 -19.57,-82.68 -5.3,-16.53 -20.25,-40.6 -38.33,-65.92 -17.94,-14.92 -13.98,191.73 -13.98,191.73 -26.87,45.54 -11.99,101.21 -11.99,101.21 0,0 -118.13,-37.32 -66.05,13 47.29,36.56 104.49,76.84 104.49,76.84 l 3.47,-2.56 c 48.9,-48.92 82.53,-158.23 82.53,-158.23 0,0 22.19,32.67 14.56,-1.22 z m -134.5,-690.96 c -0.61,-3.49 -5.26,-34.09 -11.55,-75.69 -10.96,-12.49 -66.34,170.16 -65.71,188.01 0,0 -34.72,-41.98 -79.91,-69.6 -44.45,-27.18 -33.29,5.34 -32.91,6.41 55.87,145.72 137.99,248.16 137.99,248.16 28.7,-52.59 17.47,-95.64 17.47,-95.64 4.73,-11.26 36.7,-189.62 34.62,-201.65 z m -280.67,565.86 c -14.6,-20.28 -39.36,-72.72 -39.36,-72.72 0,0 -81.43,-95.11 -100.42,-105.17 -19,-10.07 -200.025,-55.28 -190.834,-39.91 9.187,15.36 26.762,52.74 92.884,114.3 60.91,56.72 322.72,225.66 363.56,251.91 0.15,-1.33 0.46,-2.46 0.93,-3.33 -27.65,-38.84 -113.03,-126.01 -126.76,-145.08 z M 888.828,1532.35 c 23.442,-95.37 -15.387,-88.63 -15.387,-88.63 0,0 152.629,-90.11 145.669,-107.98 -33.114,-0.1 -68.708,-3.25 -105.059,-8.52 -61.676,-10.6 -328.074,2.32 -308.395,53.55 3.887,10.11 5.637,17.64 6.016,23.3 17.433,70.74 23.82,126.39 23.82,126.39 31.34,26.51 215.391,109.99 215.391,109.99 0,0 5.09,52.38 72.453,129.16 0.734,0.77 1.508,1.62 2.328,2.56 0.957,1.08 1.988,2.19 2.973,3.28 25.504,25.38 -39.809,-243.1 -39.809,-243.1 z m 0.844,-350.78 c 0,0 -104.68,80.89 -74.602,85.85 106.481,4.76 165.703,-15.71 165.703,-15.71 0,0 13.243,-83.65 -6.14,-168.15 -3.324,-14.49 -7.215,-28.74 -11.504,-42.7 -23.656,-57.419 -73.457,140.71 -73.457,140.71 z m -341.664,47.78 c 15.933,29.41 29.203,61.81 40.219,94.13 16.824,43.88 218.347,-11.68 210.339,-18.52 -0.929,-0.21 -1.847,-0.44 -2.773,-0.66 -33.719,-1.24 -133.199,-36.36 -133.199,-36.36 -67.989,-20.91 -114.586,-38.59 -114.586,-38.59 z M 508.738,750.301 614.941,914.93 c 0,0 9.172,-32.758 17.997,-77.719 -0.004,-3.281 0.093,-6.621 0.441,-10.039 2.246,-22.133 -135.488,-93.684 -124.641,-76.871 z M 1271.45,2161.7 c -23.18,-19.54 -29.59,62.84 -14,86.61 15.59,23.77 207.68,304.8 207.68,304.8 l -354.95,-421.83 128.04,106.46 c 0,0 30.35,-78.45 -40.66,-137.56 -63.4,-52.16 -116.65,-93.98 -142.46,-109.77 -90.475,-55.38 -202.897,-90.64 -202.897,-90.64 0,0 41.723,-0.07 48.5,-13.64 6.774,-13.56 -61.933,-146.41 -132.941,-243.64 -71.008,-97.24 -197.637,-109.17 -197.637,-109.17 0.113,-187.18 -155.359,-372.79 -155.359,-372.79 125.531,63.76 175.793,90.84 347.773,103.68 2.445,0.14 5.059,0.33 8.02,0.59 64.531,5.78 195.875,-212.18 157.968,-314.32 C 883.855,852.582 830.121,784.531 830.121,784.531 L 933.477,901.59 C 867.781,777.34 712.941,654.23 712.941,654.23 L 781.387,748 677.801,628.379 c 55.394,116.242 18.808,236.07 18.808,236.07 30.043,-56.09 18.836,-120.66 18.836,-120.66 31.332,135.43 -57.5,371.271 -57.5,371.271 0,0 -0.757,-49.43 -4.632,-60.5 C 649.438,1043.5 532.344,894.922 473.379,844.512 414.41,794.09 433.961,857.871 433.961,857.871 L 253.301,508.379 c 0,0 165.762,286.211 173.109,294.723 7.344,8.5 80.145,58.468 80.145,58.468 L 120.063,147.84 456.953,670.039 c 64.82,90.371 180.328,149.242 184.449,118.102 4.25,-28.832 7.36,-59.332 7.59,-87.813 0.762,-95.777 -24.547,-131.379 -24.547,-131.379 233.848,195.039 416.435,370.293 483.745,577.731 67.31,207.43 -45.13,220.86 -45.13,220.86 43.35,-24.48 39.34,-40.09 39.34,-40.09 -9.02,2.19 -18.63,3.79 -28.53,5.09 -67.76,12.13 -171.694,111.41 -171.694,111.41 -20.961,149.71 52.301,357.24 100.594,390.58 69.74,38.38 141.79,43.83 141.79,43.83 0,0 26.96,35.1 57.06,65.75 30.1,30.64 190.21,182.84 190.21,182.84 l -90.86,-80.1 c 0,0 1.35,11.51 20.8,44.65 19.44,33.14 59.26,78.4 70.51,86.89 9.8,7.38 26.95,31.32 49.42,57.92 37.1,31.11 120.69,35.58 120.69,35.58 0,0 44.61,-272.42 8.75,-320.67 -33.18,-42.27 -65.67,-78.77 -65.67,-78.77 -24.14,-101.46 -171.02,-391.59 -220.86,-483.37 -49.84,-91.78 -33.7,-141.54 -33.7,-141.54 -1.28,30.22 13.2,45.97 13.2,45.97 49.74,-111.67 86.29,-299.311 83.99,-327.6 -2.31,-28.301 -330.08,-293.551 -330.08,-293.551 l 371.03,289.051 31.45,-36.762 c 0,0 -111.19,336.242 -64.63,536.842 1.45,6.22 2.97,12.41 4.56,18.55 19.4,63.68 139.01,133.69 139.01,133.69 0,0 63.65,-172.84 59.44,-228.16 -14.63,-97.07 -31.7,-210.76 -31.7,-210.76 l 35.25,199.3 32.94,-80.71 c 0,0 -24.5,110.55 -24.5,125.55 -0.01,15 16.34,105.41 16.34,105.41 0,0 -24.32,152.91 -20.17,236.97 4.16,84.06 -27.81,42.65 42.94,164.71 70.75,122.06 83.34,172.05 83.34,172.05 0,0 -37.44,-61.65 -41.05,-18.64 -3.62,43.02 53.08,110.45 63.79,100.77 10.71,-9.69 -6.01,-45.91 -6.01,-45.91 21.12,31.55 42.21,104.19 42.21,104.19 -28.73,-0.23 -71.92,190.52 -60.37,211.99 11.56,21.47 51.17,69.37 51.17,69.37 0,0 -67.14,-56.17 -58.89,-23.69 8.25,32.48 299.29,521.93 299.29,521.93 0,0 -369.35,-557.37 -389.77,-577.3 -12.43,-12.14 -175.87,-155.96 -322.24,-279.1"
         style="fill:#000000;fill-opacity:1;fill-rule:nonzero;stroke:none"
         id="path36" />
      <path
         d="m 7673.75,1232.68 c 0,0 7.35,4.89 39.46,-12.53 18.94,-10.27 21.75,-14.16 20.89,-15.63 -76.18,-23.23 -126.83,-0.14 -126.83,-0.14 -8.27,63.84 64.17,164.02 64.17,164.02 0,0 6.23,18.83 18.7,48.84 24.32,34.16 -16.39,-184.56 -16.39,-184.56 z m 135.56,-315.461 c 0,0 34.33,-52.969 30.58,-122.379 0,0 -29.85,2.148 -54.82,43.832 0,0 -26.89,-6.453 -40.71,-16.293 0,0 -3.09,60.68 0.83,77.793 3.93,17.098 9.77,41.328 9.77,41.328 0,0 -50.1,-3.68 -100.68,-27.141 -10.28,-4.769 -44.8,-19.75 -94.14,-42.277 -7.7,-3.523 -15.8,-7.242 -24.17,-11.113 -85.18,-33.5 -214.61,-34.5 -214.61,-34.5 0,0 -25.83,57 -28.64,112.633 -0.56,27.82 -6.87,50.796 -6.87,50.796 0,0 45.86,57.832 99.05,73.882 53.19,16.05 37.63,-15.06 37.63,-15.06 0,0 43.79,64.83 98.21,130.1 l 43.84,49.67 c 16.93,17.95 34.04,34.5 50.49,48.03 0,0 -24.64,-66.2 -18.21,-110.1 0,0 58.85,35.83 112.68,2.55 54.15,-33.48 30.2,-34.79 30.2,-34.79 0,0 15.07,-41.46 10.46,-78.97 -4.61,-37.51 -9.68,-55.491 -9.68,-55.491 0,0 43.09,-67.789 68.79,-82.5 z M 7448.63,819.73 c -0.29,-0.148 -0.5,-0.25 -0.78,-0.39 -98.48,-47.598 -217.21,-108.738 -323.12,-174.211 0,0 28.22,102.211 38.92,114.711 10.69,12.519 41.6,45.89 110.03,60.93 0,0 -0.14,23.539 8.36,56.601 12.13,45.711 35.95,-51.519 35.88,-60.25 0,0 188.79,31.117 130.71,2.609 z m 106.54,417.33 c 4.19,28.27 20.92,127.85 20.92,127.85 -50.82,-14.35 -152.48,-65.74 -143.72,-40.12 26.15,49.25 48.32,88.59 56.3,96.35 24.27,23.61 182.49,75.42 182.49,75.42 0,0 -51.63,-185.17 -75.77,-223.15 -7.41,-11.65 -20.75,-28.27 -36.64,-46.33 -3.22,-1.62 -4.99,0.52 -3.58,9.98 z m 570.97,603.51 c -58.04,-52.3 -98.07,-61.91 -98.07,-61.91 0,0 66.63,-2.97 49.78,-14.04 -16.86,-11.07 -189.5,-69.57 -183.47,-42.9 3.68,16.26 44.47,31.82 75.74,41.49 -39.03,-10.29 -99.05,-24.61 -124.47,-22.68 -39.17,2.99 -100.57,-0.89 -100.57,-0.89 0,0 76.8,-8.22 67.52,-17.85 -9.29,-9.62 -37.08,-18.2 -37.08,-18.2 0,0 -37.04,-86.88 -69.28,-113.32 -6.21,-5.09 -15.33,-10.77 -26.33,-16.98 -62.8,-33.4 -122.24,-6.94 -122.24,-6.94 l -135.69,-70.4 -47.67,-120.31 -109.36,-85 -70.01,-140.28 c 0,0 90.42,153.46 108.7,167.36 18.27,13.89 80.89,55.94 80.89,55.94 0,0 11.75,86.38 46.55,115.72 34.8,29.35 217.99,81.35 167.42,48.14 -67.24,-44.16 -64.05,-48.66 -64.05,-48.66 -8.53,-6.54 -16.49,-13.31 -23.45,-20.28 -53.26,-53.35 -202.18,-386.63 -202.18,-386.63 0,0 52.37,106.23 101.09,200.04 21.35,41.26 156.93,71.99 156.93,71.99 0,0 0.26,-116.93 -45.51,-167.16 -27.45,-28.1 -55.33,-53.72 -71.78,-64.25 -34.97,-22.38 -213.65,-138.289 -213.65,-138.289 0,0 24.28,9.879 33.54,2.489 9.26,-7.391 -6.51,-82.36 -47.48,-128.129 -40.97,-45.77 -76.72,-70.911 -76.72,-70.911 -13.57,-53.171 -105.78,-229.851 -198.46,-400.031 -12.21,-5.418 -26.78,38.403 -24.84,53.071 2.19,16.562 70.88,189.902 70.88,189.902 l -85.53,-178.113 c 0,0 40.02,-67.2 8.4,-121.079 0,0 0.25,0.211 0.62,0.512 -57.91,-105.41 -112.58,-202.523 -144.44,-258.8006 51.92,89.7776 167.58,282.5196 289.65,438.1486 55.65,67.5 151.8,81.711 151.8,81.711 l 96.97,87.531 80.74,23.168 -113.43,-22.539 c 0,0 -21.78,-44.25 -58.19,-69.789 -35.23,-24.703 -125.37,-60.871 -96.27,-25.652 0.44,0.5 0.88,1.011 1.32,1.511 0.28,0.309 0.56,0.629 0.85,0.957 0.84,0.953 1.68,1.864 2.52,2.813 0.85,0.929 1.68,1.847 2.42,2.699 45.79,51.172 90.97,93.52 132.55,119.621 212.6,133.508 408.27,115.938 408.27,115.938 0,0 10.36,-26.797 2.12,-76.129 -8.24,-49.321 -96.57,-107.41 -96.57,-107.41 0,0 37,-54.969 42.05,-96.848 5.06,-41.883 -49.96,-60.352 -49.96,-60.352 l -2.38,-42.32 -108.99,-319.77 127.05,314.282 1.8,33.929 c 0,0 47,62.18 42.38,81.789 -4.62,19.622 -17.45,91.301 -17.45,91.301 14.54,19.789 111.8,85.899 111.8,85.899 6.35,83.199 58.82,98.461 58.82,98.461 0,0 45.83,-43.571 50.79,-62.692 4.96,-19.109 -125.18,-381.078 -125.18,-381.078 l 110.28,260.488 c 0,0 2.61,-18.25 -0.69,-30.66 -3.29,-12.398 -52.82,-143.539 -52.82,-143.539 0,0 88.4,197 98.02,221.949 9.63,24.95 31.16,37.789 31.16,37.789 -35.72,36.352 -73.98,188.653 -73.98,188.653 0,0 -34.63,16.937 -46.34,91.889 -11.7,74.95 42.56,229.23 42.56,229.23 -14.38,-9.68 -28.3,-17.57 -41.7,-24.02 -44,-16.81 -93.88,21.13 -93.88,21.13 0,0 24.18,212.71 53.7,268.55 0.41,0.79 0.79,1.55 1.21,2.34 1.79,3.17 3.37,6.11 4.74,8.78 4.43,8.2 9.07,16.52 13.93,24.97 16.1,26.83 29.74,19.34 43.27,-3.22 14.08,-23.47 20.08,-155.35 20.08,-155.35 43.85,58.09 134.76,107.31 134.76,107.31 0,0 75.87,88.44 90.19,93.98 14.33,5.54 160.38,69.02 160.38,69.02 l -57.29,-19.67 37.49,100.49 -65.3,-110.16 -83.14,-35.07 c -32.26,-59.37 -200.04,-167.3 -200.04,-167.3 0,0 -46.75,172.97 -17.29,208.38 42.65,43.74 73.96,45.46 73.96,45.46 -41.37,24.8 291.43,97.54 291.43,97.54 24.48,91.02 106.15,238.76 106.15,238.76 -71.97,-75.24 81.43,207.23 81.43,207.23 0,0 -185.44,-330.45 -243.48,-382.75"
         style="fill:#000000;fill-opacity:1;fill-rule:nonzero;stroke:none"
         id="path38" />
      <path
         d="m 3800.25,1543.41 c 0,0 -126.79,-55.37 -140.45,-32.3 0.53,3.57 1.3,7.37 2.26,11.35 1.4,2.8 2.56,6.58 3.27,11.79 0.58,1.83 1.24,3.75 1.9,5.66 16.36,29.13 133.02,3.5 133.02,3.5 z m 191.53,-20.73 c 20.72,55.89 161.87,227.77 191.36,237.41 52.1,-10.17 -106.94,-272.66 -106.94,-272.66 0,0 64.38,-5.23 -163.16,-213.55 -227.53,-208.31 -45.37,219.16 -45.37,219.16 0,0 -128.39,-164.53 -127.98,-39.82 0,0 -39.1,-10.05 -62.99,5.44 -0.34,0.66 -1.24,1.36 -2.92,2.11 -4.24,3.34 -7.84,7.65 -10.47,13.14 1.46,14.21 34.8,37.37 164.53,67.94 184.88,43.57 163.94,-19.17 163.94,-19.17 z m -331.87,-274.83 c 0,0 -129.32,48.95 -97.57,81.68 3.05,3.14 5.33,5.89 7.27,8.45 36.58,37.5 72.52,71.06 106.9,98.97 85.03,-53.72 125,-152.92 106.49,-251.79 -4.07,-21.76 -9.71,-43.07 -16.32,-63.58 -49.92,-122.029 -106.77,126.27 -106.77,126.27 z M 4391,2469.44 c 0,0 -126.05,16.19 -85.82,35.92 34.45,17.86 66.56,32.28 83.31,34.03 14.79,1.55 26.39,-125.24 -34,-314.31 -2.3,22.96 36.51,244.36 36.51,244.36 z m -497.84,-4.82 c 0,0 -207.36,-239.12 -78.47,11.24 0,0 -127.56,-92.98 49.89,195.21 177.44,288.19 53.59,21.57 53.59,21.57 0,0 22.71,43.64 63.52,113.83 28.69,48.45 -35.24,-301.67 -35.24,-301.67 0,0 355.28,124.02 281.43,61.85 -0.18,-0.15 -0.31,-0.27 -0.49,-0.42 -65.04,-54.46 -130.78,-110.22 -186.61,-158.97 -190.07,-166 -255.14,-149.37 -147.62,57.36 z m -514.9,-1708.421 52,-34.301 204.18,159.5 c 0,0 -204.69,-123.476 -230.44,-124.339 -25.74,-0.86 -45.38,27.222 -45.38,27.222 0,0 20.21,-62.383 -31.61,-125.812 -44.78,-54.789 -136.15,-95 -129.49,-59.617 3.63,7.386 7.21,14.82 10.78,22.277 15.61,23.062 17.42,29.32 12.85,27.441 9.41,20.489 18.56,41.192 27.26,62.078 L 3012.57,488.281 c 0,0 -0.73,43.078 3.37,58.27 25.42,94.25 276.97,492.219 514.69,750.279 44.23,49.18 229.15,-195.18 177.36,-307.15 -25.78,-45.7 -47.65,-74.352 -47.65,-74.352 0,0 496.62,512.102 634.81,925.322 0,0 -207.22,-188.92 -63.62,82.92 44.02,83.34 88.97,172.57 130.36,264.6 93.68,208.29 169.04,430.75 174.2,632.46 0,0 -92.15,-74.69 -206.67,-169.48 -84.22,-70.02 -371.22,-127.88 -371.22,-127.88 0,0 27.52,296.92 96.88,404.87 0.09,0.16 0.19,0.31 0.29,0.46 6.73,10.46 11.74,18.45 15.38,24.46 26.12,41.23 55.11,85.55 86.65,131.63 0,0 -521.75,-599.14 -545.78,-974.66 0,0 45.92,166.37 153.07,228.95 107.15,62.57 43.82,-118.59 43.82,-118.59 l 241.75,143.98 c 0,0 -166.13,-70.74 115.81,89.41 281.94,160.16 6.09,-24.79 6.09,-24.79 0,0 29.88,18.63 68,40.59 58.03,32.08 141.14,-8.39 141.14,-8.39 0,0 -15.45,-206.11 -58.75,-324.33 -4.06,-10.06 -8.32,-20.24 -12.79,-30.54 -9.92,-20.45 -14.16,-30.12 -14.53,-32.39 -52.15,-112.22 -128.32,-236.84 -238.26,-364.61 0,0 22.99,18.89 52.33,33.88 4.04,1.77 8.77,3.97 14.35,6.67 4.27,1.82 8.59,3.46 12.96,4.93 45.83,9.58 -146.59,-181.85 -146.59,-181.85 0,0 -326.29,-49.01 -304.21,9.77 7.08,13.94 15.56,29.15 26.03,46.11 0,0 -74.48,-62.58 -172.83,-169.18 -40.37,-42.77 -13.99,79.41 -13.99,79.41 0,0 -15.62,63.79 -11.94,126.41 3.69,62.62 78.67,354.82 78.67,354.82 l -149.81,-483.61 62.29,94.58 c 0,0 39.37,-166.63 -33.63,-248.83 -84.47,-99.41 -177.04,-224.03 -252.32,-364.76 0,0 128.97,211.47 244.12,292.83 115.16,81.37 -411,-651.879 -331.63,-452.578 0,0 -149.02,-239 -170.76,-426.781 0,0 61.52,79.238 145.26,112.937 83.74,33.692 -176.89,-382.539 -176.89,-382.539 0,0 110.21,143.41 216.38,336.141 57.13,110.039 177.46,119.808 177.46,119.808 l 56.04,138.711"
         style="fill:#000000;fill-opacity:1;fill-rule:nonzero;stroke:none"
         id="path40" />
      <path
         d="m 11080.9,1375.12 c -6.7,-21.47 -14.1,-43.49 -22,-65.93 -0.8,-1.18 -1.6,-2.3 -2.5,-3.75 -11.1,-17.17 -253.8,-164.36 -229.8,-128.59 24.2,35.82 267.9,241.42 254.3,198.27 z m -340.1,-301 c -26.5,-34.74 -201.1,-197.37 -225.6,-142.741 0,0 1.2,-14.149 -25.8,-50.539 -47.2,-39.231 -21.3,111.5 -21.3,111.5 0,0 -109.1,-37.93 -66.6,-2.828 98.8,65.708 242.9,153.238 442.5,256.188 0,0 -76.7,-136.84 -103.2,-171.58 z m -261.4,370.04 c 8.9,18.42 28.9,0.38 49.3,-79.04 20.7,-80.43 32.6,-146.19 32.6,-146.19 96.4,19.15 291.7,69.07 253.3,30.3 -0.5,-0.55 -0.9,-0.96 -1.4,-1.49 -79.2,-59.21 -260.6,-148.88 -415.4,-167.93 0,0 32.7,238.58 65,324.9 5.4,14.52 11,27.57 16.6,39.45 z m 18.3,34.73 c 1.9,3.17 3.7,6.17 5.5,9.03 12,11.57 14.1,-70.03 14.1,-70.03 0,0 -24.7,46.91 -19.6,61 z m 22.5,33.99 c 8.8,11.58 14.5,17.16 14.5,17.16 0,0 -2.3,48.41 27.9,90.85 30.2,42.44 99.6,62.74 99.6,62.74 0,0 -17.6,28.03 118.3,92.49 17.3,8.16 35.1,18.88 53.3,31.34 11.2,7.75 22.5,16.16 33.8,25.01 85.4,58.36 189.7,98.62 189.7,98.62 0,0 39.4,-13.93 30.8,-74.75 -1.2,-8.86 -2.7,-16.93 -4.3,-23.77 0,0 51.8,-24.94 62.2,-70.05 6.7,-28.89 -0.5,-153.59 -45.9,-321.27 -16.2,-42.06 -258.8,-249.47 -222.4,-188.67 50.2,74.17 95.1,139.97 95.1,139.97 0,0 -32.4,-27.3 -69.7,-61.46 -94.8,-78.24 -312.6,-96.74 -312.6,-96.74 -41.6,32.58 -90.2,248.89 -70.3,278.53 z m 408.9,372.37 c 90.4,83.71 166.2,178.09 166.2,178.09 0,0 1.6,-66.04 -1.1,-130.96 -1.3,-3.42 -2.6,-7.21 -3.5,-11.25 -3.7,-15.09 -36.9,21.71 -36.9,21.71 0,0 -141.5,-91.2 -124.7,-57.59 z m 338.4,166.86 c 0,0 89.1,31.06 72.4,-0.06 -1,-1.77 -1.8,-3.43 -2.6,-5.05 -16.9,-28.9 -37.6,-59.75 -54.5,-69.81 0,0 8.4,-43.75 12.3,-63.94 3.9,-20.19 -111.8,-290.14 -111.8,-290.14 0,0 -14,108.99 -8.6,144.91 0,0 -50.8,37.35 -59.4,54.9 -5.9,11.87 35.3,262.08 62.5,422.6 24.5,53.94 89.7,-193.41 89.7,-193.41 z m 156.7,470.38 c 0,0 11.7,84.25 24.1,128.51 12.5,44.26 107,333.69 107,333.69 l -197.9,-532.58 10.7,-346.88 c -30.1,-47 -90.5,-40.26 -90.5,-40.26 0,0 -96,203.3 -85.5,264.39 5.2,30.4 8.5,49.03 8.5,49.03 0,0 -33.6,-43.09 -30.3,76.18 0,0 -27.8,-89.88 -97.3,-221.98 -49.2,-87.7 -145.6,-88.28 -145.6,-88.28 L 10738,1863.26 c 0,0 187.2,256.44 210.5,271.37 23.1,14.83 103.8,58.46 79,16.44 -27.5,-46.82 -59.6,-96.96 -96.7,-148.95 -176,-246.63 -334.4,-348.56 -293.2,-281.34 0,0 -69.7,-63.97 -128.8,-101.48 0,0 25.2,-35.32 -12.4,-126.26 -5.1,-12.4 -11.2,-22.92 -17.7,-31.84 -0.9,-1.1 -1.7,-2.14 -2.4,-3.03 -27.9,-36.06 -62.2,-44.06 -62.2,-44.06 l -75.4,-220.51 c -17,-49.77 -29.8,-7.6 -30,8.91 -0.2,16.53 59.9,281.26 59.9,281.26 l -78.5,-273.04 c 0,0 41.7,-37.34 25.3,-85.3 L 10224,858.039 c 0,0 27.4,25.223 89.8,70.641 54.2,40.859 134.3,50.672 134.3,50.672 0,0 32,-110.532 -20.6,-164.653 -35.1,-33.617 -75.2,-70.937 -93,-95.969 -28.9,-40.441 -198.3,-339.871 -198.3,-339.871 0,0 163.7,265.2 175.3,277.883 11.5,12.68 104.4,82.86 104.4,82.86 L 10114.3,147.84 c 0,0 424.2,736.379 470.8,782.992 86.4,86.358 137.6,19.43 137.6,19.43 0,0 -2.6,58.828 22.3,101.978 5.5,9.47 19.5,31.15 38,59.23 36.2,54.33 271.9,186.85 259.7,153.72 -17.1,-44.65 -36.7,-90.7 -59.2,-137.52 0,0 118.7,240.38 228.6,451.87 47.1,89.8 148.9,87.71 148.9,87.71 l 144.9,190.29 -61.7,103.3 34.9,36.36 -26.8,139.66 c 0,0 15,-97.34 17.2,-117.07 2.2,-19.73 -47.6,-70.2 -47.6,-70.2 0,0 72.7,-39.61 64.9,-83.51 -7.8,-43.89 -122.7,-163.27 -167.2,-192.59 -44.4,-29.31 -81.1,-41.4 -41.6,31.01 44.3,82.68 81.9,149.04 101.8,176.17 0,0 -39.4,116.34 -37.1,148.14 2.3,31.8 88.8,137.42 88.8,137.42 0,0 -47.5,120 -44.6,186.85 2.9,66.85 174.8,270.83 174.8,270.83 l 84.7,222.13 c 0,0 -83.5,-185.45 -91.7,-213 -8.2,-27.56 -130.5,-110.55 -130.5,-110.55"
         style="fill:#000000;fill-opacity:1;fill-rule:nonzero;stroke:none"
         id="path42" />
      <path
         d="m 5646,2384.02 c 0,0 -187.39,-29.54 -165.45,-9.58 81.16,45.15 166.12,84.81 247.45,109.24 0,0 -48.12,-121.19 -181.56,-295.35 3.73,41.06 99.56,195.69 99.56,195.69 z m -967.33,-921.64 c 0,0 180.07,48.19 143.23,10.61 -72.44,-55.79 -155.22,-116.96 -184.74,-128.79 0,0 -10.75,153.78 8.55,319.7 14.72,65.82 32.96,-201.52 32.96,-201.52 z m 194.66,-181.5 c 22.85,6.7 53.05,15.11 67.18,17.11 0,0 15.66,-131.64 -23.84,-229.34 -7.33,-18.16 -24.09,-37.13 -46.48,-56 -3.83,-2.76 -8.7,-6.59 -14.99,-11.96 -0.24,-0.18 -0.48,-0.36 -0.72,-0.54 -30.94,-24.92 32.05,242.59 32.05,242.59 0,0 -43.51,18.14 -13.2,38.14 z m 1459.89,1431.68 -283.44,-269.52 c 0,0 22.52,2.72 -12.57,-56.65 -35.08,-59.37 -188.13,-135.37 -188.13,-135.37 l 110.86,86.69 c 0,0 -190.91,-113.7 -228.49,-135.11 -37.57,-21.4 -27.37,25.97 125.26,144.93 0,0 -298.46,-214.35 -336.83,-234.85 -38.37,-20.49 305.53,278.28 444.75,536.45 0,0 -337,-213.75 -610.67,-309.87 -41.27,-12.63 9.17,64.62 9.17,64.62 161.4,41.92 362.44,153.18 362.44,153.18 -156.37,-80.48 -382.35,-143.19 -382.35,-143.19 29.21,-5.91 -16.3,-83.83 -86.03,-104.47 -252.94,-70.28 -237.86,-45.98 -259.89,41.81 0,0 -313.31,-293.72 -425.07,-781.5 -0.1,-0.41 -0.22,-0.74 -0.33,-1.16 -12.63,-51.35 -40.41,166.54 -39.6,178.07 0.81,11.54 89.23,188.26 89.23,188.26 0,0 26.15,23.92 36.3,39.96 10.14,16.03 195.09,319.95 195.09,319.95 l -193.56,-298.16 c 0,0 0.54,7.69 3.08,25.55 2.54,17.85 69.58,129.11 69.58,129.11 -112.53,-153.13 -82.87,-116.58 -107.41,-190.87 -24.54,-74.28 -110.25,-212.54 -110.25,-212.54 5.44,-32.59 37.58,-272.24 31.78,-323 -0.1,-0.87 -0.17,-1.64 -0.26,-2.45 -11.67,-90.27 -15.96,-185.97 -10.1,-286.67 0,0 228.06,239.05 394.03,327.88 l -118.75,-223.54 16.47,15.9 c 16.47,15.9 42.09,-9.49 46.8,-15.83 4.7,-6.34 -26.86,-244.83 -91.23,-286.772 -99.92,-58.07 -217.62,-103.988 -217.62,-103.988 0,0 17.96,-13.289 -16.06,-45.25 0,0 -36.68,-151.359 -77.94,-200.851 l -2,136.691 66.4,360.54 -88.85,-372.489 c 0,0 27.84,41.84 17.69,-41.61 -10.15,-83.449 -16.96,-155.972 -24.39,-176.062 -7.42,-20.09 -139.84,-401.547 -139.84,-401.547 0,0 130.6,318.887 239.87,517.328 4.16,7.57 8.51,15.102 12.94,22.602 63.23,94.289 146.25,84.066 119.83,49.879 -26.45,-34.211 -60.9,-67.86 -60.9,-67.86 0,0 203.79,-4.711 320.15,280.117 -28.01,-66.066 -92.57,-187.648 -197.61,-216.957 -104.52,-29.16 5.29,77.297 5.29,77.297 0,0 -185.77,-113.109 -100.85,1.442 106.97,134.429 237.57,242.22 312.4,279.77 0,0 76.95,264.27 90.05,389.59 0,0 -98.57,-104.29 -192.04,-138.95 0,0 100.96,199.45 250.83,389.03 0,0 -170.35,-163.23 -265.8,-226.09 l 111.27,104.69 c 0,0 -27.34,-22.1 -65.95,-52.49 -43.88,-34.22 -191.26,-41.31 -191.26,-41.31 0,0 -41.6,190.69 -24.26,302.21 2.34,10.88 4.85,21.66 7.56,32.32 6.87,20.77 9.41,30.48 9.14,32.93 3.48,11.55 7.14,22.94 11.13,34 77.5,214.84 201.98,277.38 288.45,236.96 0,0 35.09,59.37 72.81,-39.47 0,0 23.62,20.4 63.82,52.27 26.34,21.06 22.94,-38.79 5.36,-65.93 -17.6,-27.15 -115.15,-98.83 -115.15,-98.83 0,0 -4.12,-44.15 -15.39,-72.35 -11.28,-28.2 -92.05,-86.29 -92.05,-86.29 l 94,59.1 c 0,0 7.16,65.2 18.49,79.86 11.34,14.66 128.4,122.38 128.4,122.38 0,0 -10.78,72.13 41.72,112.49 58.26,43.74 132.2,96.1 213.24,146.17 101.26,58.56 229.73,46.3 229.73,46.3 0,0 -83.72,-189.75 -124.4,-239.51 -64.66,-78.59 -145.46,-165.45 -245.38,-255.38 0,0 303.05,255.26 420.3,310.58 0,0 -24.66,-45.51 -63.5,-84.86 0,0 81,52.71 17.61,-18.41 -63.4,-71.12 -70.4,-134.19 -73.87,-146.82 -3.46,-12.64 -172.77,-124.42 -172.77,-124.42 l -216.96,-276.76 189.2,211.72 -56.78,-136 c 0,0 80.89,136.88 91.44,152.46 10.53,15.58 9.65,39.68 18.8,47.63 9.14,7.95 105.18,91.38 151.54,115.6 0,0 25.18,77.25 92.26,127.5 67.08,50.25 99.9,65.12 99.9,65.12 0,0 100.71,101.14 119.44,110.99 18.72,9.85 404.34,230.11 404.34,230.11 l -241.75,-116.14 c 0,0 24.26,76.45 44.01,100.83 19.75,24.37 254.08,267.28 254.08,267.28"
         style="fill:#000000;fill-opacity:1;fill-rule:nonzero;stroke:none"
         id="path44" />
      <path
         d="m 12637.1,1413.2 c -5.6,26.73 74.7,217.56 74.7,217.56 0,0 -33.6,-32.13 19.4,98.36 0,0 -345.7,-123.94 -278.2,-67.63 88.9,65.62 246.9,169.37 391.3,222.77 0,0 -131,-303.23 -207.2,-471.06 z m 309.2,646.21 c 0,0 18.2,178.72 35.1,152.63 25.6,-40.55 46.6,-77.36 51.9,-96.61 0,0 -88.9,-123.55 -109.5,-144.26 -60.4,-29.78 22.5,88.24 22.5,88.24 z M 12372.5,800.289 c 0,0 -3.5,-26.59 -8.7,-57.219 -8.5,1.969 -19.2,211.129 -19.2,211.129 0,0 -170.3,-65.597 -141.3,-24.07 1.2,1.769 2.2,3.293 3.1,4.723 5.1,7.398 8.7,12.429 10.4,14.488 10.5,12.359 90,41.609 165.5,67.32 24.8,8.49 102.6,-29.211 94.1,-45.328 -36.1,-68.23 -83.1,-152.633 -103.9,-171.043 z m -13.6,243.661 c 27.3,25.32 81.9,57.51 81.9,57.51 0,0 15.3,46.15 105.9,100.33 0.5,0.25 0.8,0.46 1.2,0.71 l 57.5,-3.08 c 0,0 -14.7,-23.32 -38.7,-48.48 -10.6,-11.24 -78.4,-52.33 -154.6,-93.48 -4.3,-2.09 -79.8,-38.1 -53.2,-13.51 z m 164.7,18.89 c 0,0 -16,-32.1 -37.9,-73.988 -11,-12.532 -48.8,23.108 -48.8,23.108 0,0 -44,5.88 -32.2,12.23 63.8,21.45 118.9,38.65 118.9,38.65 z m -631.7,127.3 c -74.5,-27.16 -153.4,-58.96 -200.7,-73.9 0,0 95.3,136.86 209.3,264.89 54.6,58.76 29.3,-37.47 12.2,-68.75 0,0 4.6,-99.91 -20.8,-122.24 z m -156.1,-429.378 c 0,0 3.4,-29.922 -11.1,-49.403 -9.6,-13.058 -92.8,-75.328 -155.3,-117.75 -29.8,-19.48 84.2,129.68 115.3,154.672 0,0 -130.3,15.578 -88.9,33.098 73.1,14.043 147.8,34.941 213.3,66.359 z m 1323.1,1390.228 c -25.8,32.78 -112.4,191.79 -106.1,222.23 6.3,30.44 21.7,110.43 37.2,142.71 15.4,32.29 76.3,138.31 76.3,138.31 0,0 -150.6,-223.49 -207,-263.69 0,0 50.6,-69.63 97.5,-140.56 17.1,-49.73 -39,-283.66 -100.5,-323.18 -95.4,-58.62 -265.6,-158.78 -348.7,-218.13 -114.8,-81.95 -207.5,-102.07 -207.5,-102.07 0,0 -86.1,84.2 -78.4,159.22 0,0 -25.5,-39.23 -29,-18.32 0,0 1,-20.28 -35.7,-59.9 -36.7,-39.62 -234,-235.32 -292.1,-268.08 -58,-32.76 -87.2,-58.8 -87.2,-58.8 0,0 -12.5,-11.09 -33.3,-30.19 -74.1,-50.37 59.5,126.3 59.5,126.3 l -233.9,-234.05 148.7,134.94 c 0,0 9.2,-42.4 -48.6,-96.98 -89.4,-85.88 -213,-212.1 -285.3,-317.352 0,0 68.4,113.162 140,187.382 0,0 -172.3,-156.44 -264.5,-375.991 0,0 118.7,-4.738 261.5,14.602 58.6,9.148 144,-27.332 144,-27.332 0,0 -111.9,-162.981 -162.4,-188.387 -29.1,-9.281 -96.7,-15.512 -96.7,-15.512 0,0 29.9,2.781 4.4,-26.129 -25.5,-28.91 -250.7,-364.191 -250.7,-364.191 0,0 166.9,234.219 270.8,292.98 0,0 -28.5,13.871 10.1,30.129 38.7,16.262 241.7,72.281 241.7,72.281 0,0 -6.7,28.899 27.2,82.918 0,0 -62.8,-28.519 29.1,73.743 0,0 -5.5,44.269 14.8,56.828 20.4,12.562 193.1,190.883 193.1,190.883 0,0 -61.1,-55.723 -75.6,-59.723 -14.5,-4 -212.4,-44.957 -212.4,-44.957 l 120.5,40.668 c 0,0 -166.6,-52.469 -261.1,-25.61 0,0 78.7,147.14 118.6,178.76 39.9,31.63 237,100.16 237,100.16 0,0 41.3,86.1 218.3,96.92 0,0 -31.9,-77.38 -130.7,-152.02 0,0 133.5,89.92 174.6,120.17 41.1,30.24 -17.8,19.46 113.3,112.15 0,0 -122.6,-77.9 -190.5,-77.65 -25.9,0.1 -72.4,-13.23 -125.1,-31.32 -51.5,-18.39 2.1,205.91 35.6,249.68 39.2,39.4 78.9,74.69 116.2,100.51 0,0 -30.9,-41.29 -96.6,-95.44 0,0 156.3,101 237.6,166.71 0,0 74.1,-25.23 59.6,-125.92 0,0 52.6,60.54 89.4,97.53 62.4,52.34 335.9,106.02 335.9,106.02 0,0 -82.2,-320.03 -124.3,-395.1 -31.8,-54.19 -80.9,-104.43 -80.9,-104.43 l 10.4,-0.55 c 30.6,-7.64 -238.1,-213.07 -238.8,-213.609 -44.8,-19.93 -81,-32.492 -95.3,-29.492 0,0 -53.9,-119.797 -95.3,-161.071 -8.1,-8.136 -153.8,-134.918 -153.8,-134.918 l 150.1,104.071 -160,-276.032 c 0,0 169.7,269.161 251.3,394.473 25.2,38.348 164.6,47.02 164.6,47.02 0,0 24.3,-203.442 9.2,-261.883 -0.7,-2.227 -1.3,-4.348 -2,-6.27 -1.4,-4.078 -2.7,-7.187 -3.9,-9.48 0,0 66.4,-126.039 63.4,-196.699 -3.1,-70.661 -139.8,-309 -139.8,-309 0,0 157.7,232.371 218.7,270.05 0,0 -83,107.16 -99.6,189.7 -16.6,82.539 9.8,204.191 33,235.871 11.6,15.968 68,70.371 127.7,145.609 13.4,16.63 23.4,-50.012 12.4,-97.25 -11.1,-47.25 -34.3,-68.609 -34.3,-68.609 0,0 2.4,-2.762 9,-27.36 6.6,-24.59 2.6,-244.711 2.6,-244.711 l 21.8,183.899 -23,78.32 37.7,106.152 c 0,0 -23.7,72.789 -0.8,102.679 50.2,68.01 98.7,148.99 120.7,232.61 0,0 -83.4,-26.88 -135.6,-18.86 0,0 72.5,130.53 151.4,269.91 79.7,124.27 58.8,-53.53 58.8,-53.53 0,0 127.8,223.59 147.1,292.53 0,0 -55.3,-109.04 -104.2,-168.75 -49,-59.7 -47.7,-1.35 -47.7,-1.35 0,0 -50.6,-61.8 -0.7,24.79 65.2,113.88 124.6,215.09 140.7,234.12 39.9,47.1 15.5,-15.41 15.5,-15.41 0,0 103.3,195.46 127.9,229.59 24.6,34.13 73.3,62.49 73.3,62.49 0,0 -34.5,4.46 -60.2,37.23"
         style="fill:#000000;fill-opacity:1;fill-rule:nonzero;stroke:none"
         id="path46" />
      <path
         d="m 9967.58,1407.03 c -32.69,-31.69 -230.64,37.2 -213.74,63.68 3.83,5.7 7.24,10.5 10.02,14.06 0,0 -19.91,-13.81 -43.03,-28.81 -36.59,-22.66 -42.87,168.73 -25.77,187.12 0.53,0.64 1.16,1.28 1.71,1.92 0.4,0.45 0.86,0.94 1.22,1.36 7.3,8.27 15.78,16.73 25.95,25.16 0,0 -51.67,-12.91 0.11,61.81 l -9.9,2.57 c 0,0 16.45,61.56 169.54,139.82 26.72,13.66 55.16,25.83 83.89,36.67 95.82,23.82 225.02,-8.51 225.02,-8.51 0,0 11.5,-166.4 -19.8,-214.79 -12.2,-19.6 -26.4,-38.98 -42.9,-57.71 0,0 105.5,92.07 110,94.1 4.4,2.04 -40.3,-83.52 -40.3,-83.52 0,0 32.8,16.53 -14,-86.32 0,0 -131.4,-55.85 -218.02,-148.61 z m -175.06,-70.67 c -18.79,-1.49 -83.73,-43.27 -83.73,-43.27 l 82.23,62.05 c 0,0 -129.88,-80.85 -147.76,-91.02 -11.91,-6.78 31.73,75.66 71.42,143.28 -1.66,-7.97 -1.32,-9.56 4.55,7.73 0.85,1.44 1.7,2.86 2.55,4.29 28.14,33.35 231.69,-28.4 210.22,-56.89 -1.53,-2.02 -2.51,-3.57 -3.1,-4.77 -4.8,-7.51 -9.27,-15.19 -13.24,-23.06 0,0 -104.36,3.16 -123.14,1.66 z m -76.6,-193.37 c -7.51,-20.16 -31.34,-35.79 -41.07,-41.51 -40.25,-22.48 -106.1,-61.87 -106.1,-61.87 0,0 51.87,123.3 63.85,142.77 8.53,13.87 67.47,67.76 120.68,101.66 2.54,0.85 6.1,2.35 11.09,4.82 27.79,13.73 -38.93,-120.33 -48.45,-145.87 z m -58.27,424.09 c 0,0 1.26,14.76 11.44,36.2 19.65,19.68 24.12,-159.86 3.13,-176.76 -1.73,-0.92 -3.45,-1.82 -5.03,-2.61 -31.57,-15.66 -79.06,-33.74 -79.06,-33.74 0,0 35.3,129.61 69.52,176.91 z m 549.95,189.69 c -17.5,-31.19 -6.2,157.5 -6.2,157.5 0,0 -16.4,-16.98 -38.9,5.86 0,0 -173.14,-0.47 -121.8,17.04 109.5,33.28 205.3,47.25 205.3,47.25 0,0 10.9,-108.62 -38.4,-227.65 z m -42.9,-90.24 c 0,0 79.5,128.86 127.7,213.59 48.3,84.73 24.6,17.31 24.6,17.31 55.2,110.23 108.9,301.71 108.9,301.71 -285.2,-97.66 -682.1,-381.34 -682.1,-381.34 50.21,161.07 154.3,316.08 154.3,316.08 37.97,0.33 82.72,-34.96 82.72,-34.96 -7.9,34.1 121.78,226.26 121.78,226.26 l -89.7,-124.97 181.7,305.97 -247.19,-366.17 c 0,0 -58.58,1.28 -62.19,11.6 -3.6,10.31 -8.1,35.43 -8.1,35.43 0,0 -23.4,-100.65 -80.12,-223.33 -56.73,-122.68 -174.36,-260.05 -174.36,-260.05 l 49.45,54.36 c 3.76,-38.13 -63.82,-125.12 -63.82,-125.12 l 72.89,87.8 c 0,0 19.66,-75.77 -48.09,-175.01 -21.9,-32.07 -41.41,-68.02 -57.82,-102.02 -29.88,-57.1 -17.63,69.38 -17.63,69.38 0,0 -29.2,-23.19 -26.54,7.87 2.66,31.06 47.46,128.52 47.46,128.52 -72.33,-107.86 -97.74,-238.46 -97.74,-238.46 0,0 41.58,77.84 56.3,88.22 14.71,10.38 24.29,-70.54 8.9,-121.13 -16.48,-39.99 -25.8,-68.15 -25.8,-68.15 l 147.11,68.52 -15.19,-43.04 c 0,0 35.12,32.49 20.94,5.21 -14.19,-27.27 -63.91,-115.62 -63.91,-115.62 -2.24,-25.46 -33.26,-102.83 -33.26,-102.83 0,0 4.18,-31.95 -7.67,-65.66 -11.86,-33.71 -44.06,-116.68 -44.06,-116.68 78,89.93 193.26,131.2 193.26,131.2 -28.5,-46.32 -60.56,-115.149 -89.79,-183.821 -60.24,-62.5 -175.35,-112.801 -175.35,-112.801 L 9454.24,623.051 9325.4,499.23 9181.3,147.84 c 0,0 102.34,188.871 172.92,311.461 l 26.62,-54.063 -19.59,66.231 c 25.11,43.332 45.36,76.621 53.96,86.972 32.81,39.438 76.66,66.758 76.66,66.758 0,0 -37.05,-13.82 -30.59,69.141 5.11,65.73 117.33,156.512 154.74,165.242 -45.3,-109.023 -81.11,-209.852 -81.11,-209.852 0,0 73.85,103.192 116.14,165.102 0.77,1.117 1.48,2.168 2.18,3.199 24.11,30.129 182.13,106.699 162.73,88.051 -20.13,-19.363 -70.49,-81.332 -70.49,-81.332 0,0 152.5,104.648 199.36,272.91 0,0 -35.44,-102.828 -132.37,-168.582 -96.91,-65.738 -143.06,-99.699 -84.53,-16.547 58.59,62.18 143.25,144.709 154.07,161.099 15.46,23.39 64.84,96.08 75.63,132.34 10.78,36.27 21.5,90.85 21.5,90.85 0,0 -13.33,-59.73 -28.73,-79.05 -15.39,-19.31 -36.4,-37.44 -36.4,-37.44 l 14.27,102.65 c 0,0 -30.85,-181.21 -49.47,-201.69 -18.61,-20.48 -206.48,-130.509 -206.48,-130.509 0,0 22,87.539 55.61,122.519 13.74,14.29 74.43,64.27 74.43,64.27 0,0 -45.97,-7 -77.76,-14.89 -16.32,-0.54 49.66,178.07 92.19,189.59 55.26,8.88 134.28,-9.53 134.28,-9.53 -10.39,14.72 27.87,4.24 27.87,4.24 0,0 17.6,134.39 83.46,174.28 66,39.89 148.7,40.24 148.7,40.24 1.1,11.02 55.9,123.91 55.9,123.91 0,0 -6.2,14 -3.6,23.89 2.5,9.9 63.6,126.45 63.6,126.45 -6.6,16.65 2.1,39.7 2.1,39.7 -78.2,-83.86 -164.4,-168.92 -164.4,-168.92"
         style="fill:#000000;fill-opacity:1;fill-rule:nonzero;stroke:none"
         id="path48" />
      <path
         d="m 2817.18,3201.82 c 0,0 -210.74,55.74 -162.98,69.35 0.21,0.06 0.37,0.12 0.58,0.18 12.59,3.49 25.37,7.13 38.35,10.94 133.9,39.33 235.25,16.58 235.25,16.58 -8.3,-36.47 -51.93,-67.7 -51.93,-67.7 -29.41,-168.3 -200.99,-315.9 -214.74,-335.06 -8.33,-11.62 -36.43,-34.98 -64.77,-54.98 -29.52,-7.37 159.74,244.63 159.74,244.63 0,0 -17.02,32.31 60.5,116.06 z m -160.98,403.64 c -6.41,-42.73 -53.05,-210.34 -53.05,-210.34 0,0 12.8,6.86 68.05,-38.63 55.24,-45.48 -4.87,-42.05 -4.87,-42.05 -92.38,7.52 -151.8,22.75 -151.8,22.75 0,0 48.24,138.89 139.43,288.16 3.11,3.04 5.32,0.7 2.24,-19.89 z M 2422.9,2518.47 c -2.73,-11.89 -162.86,-278.02 -162.86,-278.02 l 256.33,327.98 c 0,0 -13.17,15.26 -11.15,33.02 2.02,17.76 12.41,56.76 12.41,56.76 0,0 -4.9,0.39 -12.53,4.08 -7.63,3.68 -3.81,53.21 10.91,68.11 14.71,14.91 172.16,148.73 172.16,148.73 l 4.16,-45.87 c 0,0 10.59,70.44 52.57,125.55 57.75,75.82 128.16,207.56 128.16,207.56 11.85,-37.65 11.2,-234.18 11.2,-234.18 0,0 -12.09,-17.79 -33.3,-34.74 -21.21,-16.95 -29.91,-7.13 -29.91,-7.13 0,0 -39.18,-131.8 -48.93,-151.61 -9.74,-19.81 -136.31,-132.69 -136.31,-132.69 l 111.88,72.49 -53.48,-149.23 c 0,0 134.4,305.59 141.97,332.32 7.57,26.73 60.4,69.23 60.4,69.23 0,0 36.25,298.29 42.21,325.28 5.97,26.99 47.71,51.54 47.71,51.54 l -21.35,0.13 65.07,47.11 c 0,0 -54.03,-26.49 -100.65,-33.19 -49.22,-7.08 -96.58,-10.36 -140.6,-11.16 -60.51,0.5 -176.21,92.91 -176.21,92.91 0,0 45.26,218.95 74.1,273.23 11.32,16.81 23.15,33.57 35.52,50.09 42.86,57.25 169.03,95.81 169.03,95.81 6.71,10.37 17.3,20.19 29.84,29.26 39.67,32.14 81.97,-104.07 81.97,-104.07 l -131.04,-133.13 40.72,-35.69 -144.02,-178.31 c 0,0 160.22,169.14 175.03,169.24 0,0 -48.9,13.26 -52.67,36.78 -3.77,23.52 143.03,134.9 143.03,134.9 0,0 -107.73,113.65 -51.11,144.53 2.87,1.28 5.71,2.51 8.51,3.7 7.44,2.39 13.03,4.73 17.17,7.01 22.89,8.95 39.71,14.04 39.71,14.04 5.39,33.66 33.64,76.6 33.64,76.6 l -11.01,-68.71 c 30.59,98.66 138.06,318.15 138.06,318.15 L 3088.12,4024.5 c 16.74,94.3 159.93,362.33 159.93,362.33 0,0 -114.75,-208.47 -160.4,-288.28 -45.66,-79.81 -62.17,-105.94 -138.14,-159.52 -75.98,-53.59 -244.91,-153.93 -244.91,-153.93 l 36.19,15.57 c -24.76,-51.66 -67.04,-93.2 -80.31,-105.5 7.92,6.66 23.54,16.87 14.97,-15.13 -17.98,-67.11 -175.78,-250.89 -183.41,-247.2 -7.63,3.69 -1.56,77.51 -1.56,77.51 0,0 -16.16,1.76 -4.2,30.26 11.96,28.5 218.32,306.13 218.32,306.13 l -136.08,-167.25 c 0,0 -2.12,17.6 -3.24,26 -1.12,8.4 32.64,111.48 32.64,111.48 0,0 -50.65,-111.06 -53.12,-121.35 -2.47,-10.29 -7.88,-56.89 -12.59,-70.93 -4.72,-14.04 -73.83,-96.67 -73.83,-96.67 0,0 -9.56,-159.76 -33.02,-203.67 -23.47,-43.92 -59.62,-117.42 -59.62,-117.42 0,0 89.16,13.51 214.45,44.75 65.29,17.08 212.42,-57.02 212.42,-57.02 0,0 -190.76,-361.78 -260.15,-389.98 -28.09,-10.62 -51.86,-14.37 -51.86,-14.37 0,0 10.34,-45.04 12.47,-78.41 -0.13,-4.14 -0.06,-8.99 0.34,-14.86 2.39,-35.45 -66.99,21.73 -76.55,43.69 -9.56,21.96 -70.1,133.27 -18.5,170.63 51.59,37.35 137.87,65.45 137.87,65.45 l -51.56,-11.47 56.08,119.24 -90.59,-135.9 -89.35,-48.57 15.32,-143 c 0,0 115.75,-75.17 104.78,-125.46 -7.81,-26.35 -18.44,-50.9 -29.54,-58.56 -21.25,-14.68 -34.81,-1.83 -34.81,-1.83 -23.4,-33.24 -97.55,-80.54 -97.55,-80.54 -19.18,-47.89 -204.64,-359.28 -204.64,-359.28 l 210.28,332.9 c 0,0 100.98,66.02 98.25,54.13"
         style="fill:#000000;fill-opacity:1;fill-rule:nonzero;stroke:none"
         id="path50" />
      <path
         d="m 2777.47,1983.44 c 0,0 -62.19,-77.88 -43.54,-36.46 22.93,40.44 41.32,71.97 41.32,71.97 41.98,15.12 69.9,21.05 88.45,22.06 19.49,-5.19 -86.23,-57.57 -86.23,-57.57 z m -350.59,-795.56 c -18.27,-18.75 40.21,224.09 57.23,249.52 0,0 -24.25,20.28 -0.55,111.07 0,0 -36.21,-15.43 -128.75,-26.72 -36.52,-4.45 -21.08,11.47 10.9,32.34 102.88,57.32 198.28,109.11 198.28,109.11 -7.18,-40.49 -44.22,-86.07 -44.22,-86.07 15.05,-28.48 38.68,-140.49 38.68,-140.49 l -34.05,-50.91 c 0,0 -5.24,-23.98 -24.59,-76.92 -6.97,-19.05 -35.53,-66.41 -72.93,-120.93 z m -66.12,-90.95 c -53.74,-69.69 -110.66,-132.981 -146.54,-149.5 -6.37,-2.93 -12.77,-5.5 -19.17,-7.93 -66.4,-17.41 -181.7,59.191 -181.7,59.191 0,0 -45.75,119.039 18.69,275.399 32.1,63.06 66.42,120.35 92.29,138.95 18.5,13.31 61.87,39.18 114.48,69.42 90.76,42.85 231.16,49.62 231.16,49.62 0,0 -27.37,-330.46 -89.54,-409.2 -14.72,-18.65 -20.03,-25.78 -19.67,-25.95 z M 2018.55,767.172 c 0,0 17.46,6.769 -24.79,-34.953 -25.57,-25.25 -25.01,-16.11 -20.62,-4.969 23.8,50.422 51.12,101.02 71.7,118.059 22.43,18.562 73.86,34.113 120.38,45.121 2.03,0.261 4.37,0.652 7.48,1.402 37.88,9.117 -154.15,-124.66 -154.15,-124.66 z m -79.92,294.768 c 0.48,4.12 17.45,47.7 41.91,103.09 33.1,74.57 4.27,-123 4.27,-123 0,0 23.29,16.21 23.09,-62.76 0,0 20.76,4.652 82.55,-27.969 42.05,-22.199 33.44,-29.442 23.65,-31.813 -38.6,-5.136 -66.27,-3.316 -66.27,-3.316 L 1990.02,808.91 c 0,0 -0.67,51.981 9.07,77.09 9.74,25.102 18.51,13.66 18.51,13.66 0,0 -80.27,151.27 -78.97,162.28 z m 399.71,492.78 c 8.85,17.26 23.4,32.61 36.53,44.2 15.34,13.53 28.74,21.9 28.74,21.9 0,0 4.32,21.99 9.01,45.62 3.62,18.2 23,-17.62 23,-17.62 0,0 53.66,-14.75 37.99,-24.96 -73.11,-47.53 -145.63,-89.35 -135.27,-69.14 z m 474.21,480.85 c -64.25,-11.3 -64.26,7.87 -64.26,7.87 0,0 -110.62,-290.01 -137.44,-320.5 -9.42,-10.71 -48.24,-39.28 -93.78,-70.21 -55.27,-32.81 -102.06,4.62 -97.8,47.04 0.9,4.47 1.72,8.56 2.43,12.02 2.22,6.67 3.56,11.16 4.26,14.04 11.15,18.06 54.4,44.68 54.4,44.68 11.65,23.37 207.75,405.08 207.75,405.08 l -180.17,-314.34 c 0,0 -8.03,15.13 -8.46,24.23 -0.44,9.11 46.71,148.25 46.71,148.25 0,0 -56.34,-137.76 -54.82,-150.46 1.52,-12.7 0.8,-54.71 0.8,-54.71 0,0 -19.35,-52.94 -27.11,-62.44 -7.76,-9.5 -45.81,-34.14 -45.81,-34.14 -5.04,-23.8 -14.23,-46.42 -27.89,-68.43 -42,-51.43 -175.53,-22.99 -99.27,95.4 0,0 -169.56,-88.9 -272.24,-230.71 0,0 71.1,86.91 155.92,116.31 84.82,29.4 95.59,4.59 95.59,4.59 0,0 95.66,-17.46 68.13,-47.13 -43.1,-40.12 -104.22,-79.86 -187.31,-122.84 -169.17,-87.52 -176.9,-59.6 -176.9,-59.6 l -35.24,-121.23 27.6,52.43 -55.97,-202.53 18.98,117.71 -42.63,-176.33 c 0,0 85.26,-160.151 83.34,-177.12 -1.93,-16.98 -48.63,-89.48 -48.63,-89.48 0,0 -1.35,-85.84 -2.47,-100.489 -1.12,-14.66 -60.99,-136.16 -68.31,-135.601 -7.33,0.558 -6.87,48.031 -6.87,48.031 0,0 -21.41,-29.313 -23.79,-17.563 -2.39,11.743 -6.33,104.731 -0.58,125.891 5.75,21.172 31.67,43.5 34.62,58.242 2.94,14.739 59.67,144.301 59.67,144.301 l -68.35,-134.684 -4.28,70.063 c 0,0 0.86,-74.789 -4.95,-86.93 -5.8,-12.14 -22.74,-39.422 -22.74,-39.422 C 1818.87,686.629 1795.66,524 1787,495.301 1778.34,466.602 1601.13,147.84 1601.13,147.84 c 241.22,372.93 246.62,317.531 246.62,317.531 l 62.17,111.57 c 0,0 -69.54,-110.101 -57.72,-71.211 11.82,38.891 86.94,165.692 86.94,165.692 l -18.7,-66.602 c 0,0 12.81,32.961 31.08,74.762 32.72,51.727 211.2,207.918 288.42,226.098 10.17,1.769 16.31,2.711 16.31,2.711 67.95,162.039 260.41,372.489 260.41,372.489 l -4.85,-50.88 c 0,0 24.72,-77.72 -13.87,-129.33 -38.58,-51.6 -80.19,-78.22 -83.87,-87.06 -3.68,-8.85 -107.22,-180.348 -107.22,-180.348 L 2415.69,989.5 c 0,0 0.31,-41.559 -7.31,-56.918 -7.62,-15.363 -43.13,-51.801 -43.13,-51.801 l 1.61,-109.429 -125.8,-230.512 151.9,218.992 -6.39,132.918 27.23,41 c 0,0 6.46,55.52 25.53,76.51 19.06,20.99 95.92,130.53 95.92,130.53 0,0 21.51,198.13 31.65,215.04 10.13,16.91 90.9,121.17 90.9,121.17 0,0 -3.53,12.99 -8.51,31.68 -15.4,58.88 67.12,161.84 67.12,161.84 l 89.44,21.36 81.63,176.43 c 0,0 -100.4,-169.26 -112.16,-177.89 -11.77,-8.64 -78.39,-10.57 -78.39,-10.57 0,0 -10.13,-45.65 -40.87,-89.56 -13.64,-19.49 -24.15,-5.9 -31.62,15.21 -4.69,19.53 -7.83,34.3 -7.46,37.43 1.29,11.02 27.54,72.5 27.54,72.5 0,0 -5.17,31.69 0.71,61.17 2.73,13.68 30.91,66.82 60.34,119.87 36.09,64.08 172.98,153.71 188.99,138.27 6.95,-5.73 5.35,-13.22 5.35,-13.22 21.57,44.84 226.14,383.16 226.14,383.16 0,0 -249.26,-357.81 -313.5,-369.11"
         style="fill:#000000;fill-opacity:1;fill-rule:nonzero;stroke:none"
         id="path52" />
    </g>
  </g>
</svg>
