<svg xmlns="http://www.w3.org/2000/svg" version="1.1" viewBox="-5.0 -10.0 110.0 135.0">
 <g>
  <path d="m79.688 29.688c0 5.1797-4.1953 9.375-9.375 9.375-5.1758 0-9.375-4.1953-9.375-9.375 0-5.1758 4.1992-9.375 9.375-9.375 5.1797 0 9.375 4.1992 9.375 9.375z"/>
  <path d="m28.305 26.836c0.71094-2.4883 3.3047-3.9297 5.7969-3.2188l10.938 3.125c0.90234 0.25781 1.7109 0.78516 2.3125 1.5078l3.8008 4.5625h-18.996l-0.63281-0.17969c-2.4883-0.71094-3.9297-3.3047-3.2188-5.7969z"/>
  <path d="m40.246 45.312-6.0586 6.0586c-1.5547 1.5547-1.8203 3.9805-0.64062 5.832l7.9453 12.488-13.609 5.668c-2.3867 0.99609-3.5195 3.7422-2.5234 6.1328 0.99609 2.3867 3.7422 3.5195 6.1328 2.5234l18.75-7.8125c1.2734-0.53516 2.2539-1.6016 2.668-2.9219 0.41406-1.3203 0.22656-2.7539-0.51953-3.9219l-3.7812-5.9453 9.3789-0.78125 17.324 12.992c2.0703 1.5547 5.0078 1.1328 6.5625-0.9375s1.1328-5.0078-0.9375-6.5625l-18.75-14.062c-0.91797-0.6875-2.0586-1.0156-3.2031-0.92188l-0.88281 0.074219 0.007813-0.007813-9.5273 0.875c-0.85938 0.078125-1.6211-0.55469-1.6992-1.4141-0.078124-0.85938 0.55469-1.6211 1.4141-1.6992l13.105-1.1992c2.9922-4.0664 2.0742-9.9609-2.2773-12.863-0.94922-0.63281-2.0625-0.96875-3.2031-0.96875h-35.609c-2.5898 0-4.6875 2.0977-4.6875 4.6875s2.0977 4.6875 4.6875 4.6875z"/>
 </g>
<text x="0.0" y="117.5" font-size="5.0" font-weight="bold" font-family="Arbeit Regular, Helvetica, Arial-Unicode, Arial, Sans-serif" fill="#000000">Created by SeungJun</text><text x="0.0" y="122.5" font-size="5.0" font-weight="bold" font-family="Arbeit Regular, Helvetica, Arial-Unicode, Arial, Sans-serif" fill="#000000">from Noun Project</text></svg>